<?xml version="1.0" encoding="UTF-8" standalone="no"?><!DOCTYPE svg PUBLIC "-//W3C//DTD SVG 1.1//EN" "http://www.w3.org/Graphics/SVG/1.1/DTD/svg11.dtd"><svg width="100%" height="100%" viewBox="0 0 480 480" version="1.1" xmlns="http://www.w3.org/2000/svg" xmlns:xlink="http://www.w3.org/1999/xlink" xml:space="preserve" xmlns:serif="http://www.serif.com/" style="fill-rule:evenodd;clip-rule:evenodd;stroke-linejoin:round;stroke-miterlimit:2;"><g><path d="M480,167.134l0,145.732c0,92.244 -74.89,167.134 -167.134,167.134l-145.732,0c-92.244,0 -167.134,-74.89 -167.134,-167.134l0,-145.732c0,-92.244 74.89,-167.134 167.134,-167.134l145.732,0c92.244,0 167.134,74.89 167.134,167.134Z" style="fill:#ffabab;"/><clipPath id="_clip1"><path d="M480,167.134l0,145.732c0,92.244 -74.89,167.134 -167.134,167.134l-145.732,0c-92.244,0 -167.134,-74.89 -167.134,-167.134l0,-145.732c0,-92.244 74.89,-167.134 167.134,-167.134l145.732,0c92.244,0 167.134,74.89 167.134,167.134Z"/></clipPath><g clip-path="url(#_clip1)"><path d="M468.753,153.454l0,145.732c0,92.244 -74.89,167.134 -167.134,167.134l-145.732,0c-92.244,0 -167.134,-74.89 -167.134,-167.134l0,-145.732c0,-92.244 74.89,-167.134 167.134,-167.134l145.732,0c92.244,0 167.134,74.89 167.134,167.134Z" style="fill:#ffd8e6;"/></g><path d="M160.106,304.597c0,22.127 -17.938,40.065 -40.065,40.065c-22.127,0 -40.065,-17.938 -40.065,-40.065c0,-22.127 17.938,-40.065 40.065,-40.065c22.127,0 40.065,17.938 40.065,40.065Z" style="fill:#ff6982;fill-rule:nonzero;"/><path d="M400.031,304.597c0,22.127 -17.937,40.065 -40.064,40.065c-22.128,0 -40.065,-17.938 -40.065,-40.065c0,-22.127 17.937,-40.065 40.065,-40.065c22.127,0 40.064,17.938 40.064,40.065Z" style="fill:#ff6982;fill-rule:nonzero;"/><path d="M141.386,105.466c5.834,31.098 -10.237,68.927 -37.347,85.45c-7.213,4.199 -16.746,7.895 -25.414,6.825c-5.465,21.306 -10.268,42.75 -13.235,64.452c-3.217,25.864 -4.323,54.088 9.048,77.411c25.124,44.118 79.087,51.95 124.682,62.112c-45.744,1.893 -104.684,-15.692 -129.516,-56.942c-0.734,-1.235 -2.348,-4.295 -3.075,-5.563c-1.824,-3.783 -3.641,-7.736 -4.909,-11.743c-5.251,-15.943 -5.908,-33.105 -4.897,-49.718c2.026,-27.848 7.824,-55.16 14.707,-82.218c-0.44,-0.232 -0.874,-0.482 -1.302,-0.752c-18.718,-12.205 -24.18,-41.507 -19.454,-62.048c3.057,-13.938 11.204,-26.711 22.741,-35.169c5.964,-4.209 12.908,-6.533 19.993,-7.833c1.074,-0.188 2.096,-0.349 3.208,-0.476c7.841,-7.093 18.538,-11.124 29.175,-10.851c11.147,0.168 21.951,5.758 28.987,14.274c48.262,-17.011 101.53,-19.528 150.962,-5.981c6.584,1.728 13.011,3.867 19.438,6.037c7.035,-8.547 17.858,-14.162 29.032,-14.33c10.638,-0.272 21.334,3.758 29.175,10.851c1.112,0.127 2.134,0.288 3.208,0.476c7.086,1.299 14.029,3.624 19.993,7.833c11.537,8.458 19.686,21.232 22.741,35.169c4.726,20.559 -0.734,49.83 -19.454,62.048c-0.442,0.278 -0.89,0.536 -1.344,0.774c6.205,24.483 11.633,49.223 14.154,74.378c2.103,23.426 1.706,48.35 -9.428,69.679c-12.238,24.045 -35.38,40.432 -60.106,49.81c-23.117,8.922 -48.044,13.743 -72.706,12.333c9.284,-2.37 18.57,-4.116 27.866,-6.202c5.214,-1.024 10.515,-2.557 15.731,-3.628c5.97,-1.634 13.455,-3.552 19.265,-5.664l3.805,-1.266c1.809,-0.754 5.598,-2.249 7.415,-3.004c31.279,-12.956 56.152,-36.85 60.784,-71.552c3.665,-26.614 -0.863,-53.547 -6.192,-79.669c-2.33,-10.992 -4.978,-22.009 -7.793,-33.02c-8.655,1.047 -18.165,-2.646 -25.361,-6.832c-27.103,-16.511 -43.181,-54.351 -37.349,-85.444c-0.386,-0.131 8.618,2.92 0.819,0.277c1.691,9.851 3.381,19.471 6.073,29.027c5.641,19.709 16.352,39.367 33.832,50.606c5.462,3.343 13.414,6.748 20.404,6.239c-0.682,0.056 6.845,-1.079 7.175,-2.369c15.914,-10.816 20.493,-37.357 16.321,-55.147c-2.736,-12.498 -10.001,-23.891 -20.276,-31.459c-6.102,-4.273 -13.784,-6.479 -21.152,-7.279l-0.999,-0.087l-0.804,-0.653c-15.088,-11.363 -34.03,-12.297 -49.232,-0.46c-0.139,0.103 -0.277,0.207 -0.414,0.311c-0.667,-0.691 -5.595,5.78 -6.646,6.051c-2.082,2.233 -4.037,4.667 -5.894,7.27c0.6,-2.888 1.591,-5.66 2.907,-8.27c-0.61,-0.206 -1.172,-0.396 -1.669,-0.566c-50.686,-17.256 -107.007,-17.319 -157.723,-0.139c-0.601,0.206 -1.299,0.443 -2.063,0.7c1.318,2.611 2.309,5.385 2.909,8.275c-1.858,-2.605 -3.814,-5.041 -5.898,-7.274c-0.609,-0.121 -6.749,-6.36 -6.634,-6.041c-0.14,-0.107 -0.281,-0.212 -0.422,-0.317c-15.213,-11.836 -34.133,-10.905 -49.234,0.461l-0.802,0.653c-1.529,0.118 -3.082,0.302 -4.693,0.596c-6.145,1.12 -12.36,3.165 -17.46,6.769c-10.271,7.569 -17.54,18.96 -20.274,31.459c-4.168,17.795 0.399,44.284 16.288,55.124c-0.902,0.226 6.094,3.077 7.161,2.389c7.006,0.529 14.982,-2.894 20.451,-6.236c17.481,-11.241 28.189,-30.895 33.832,-50.606c2.69,-9.56 4.383,-19.18 6.074,-29.035l0.816,-0.276Z" style="fill:#650000;"/><path d="M283.511,271.431c0,15.554 -19.483,28.163 -43.515,28.163c-24.032,0 -43.515,-12.61 -43.515,-28.163c0,-22.318 19.483,-35.948 43.515,-35.948c24.032,0 43.515,13.63 43.515,35.948Z" style="fill:#ff6982;fill-rule:nonzero;"/><path d="M283.262,274.503c-0.002,-0.008 -0.002,-0.016 -0.004,-0.023c0.167,-1.001 0.253,-2.019 0.253,-3.049c0,-22.318 -19.483,-35.948 -43.515,-35.948c-24.032,0 -43.515,13.63 -43.515,35.948c0,1.028 0.086,2.043 0.251,3.043c-0.002,0.01 -0.002,0.019 -0.004,0.029c-0.164,-1.007 -0.251,-2.035 -0.251,-3.071c0,-22.32 19.489,-35.956 43.523,-35.956c24.024,0 43.513,13.636 43.513,35.956c0,1.036 -0.086,2.064 -0.251,3.071Z" style="fill:#feefef;fill-rule:nonzero;"/><path d="M196.734,274.48c1.538,-12.781 9.841,-22.269 21.598,-27.354c0.793,2.436 3.881,3.933 7.641,3.933c1.071,0 2.196,-0.121 3.339,-0.376c5.069,-1.145 8.684,-4.527 8.412,-7.744c0.755,-0.039 1.513,-0.049 2.268,-0.049c22.425,0 40.888,11.868 43.268,31.583c0.166,-1.001 0.251,-2.015 0.251,-3.043c0,-22.318 -19.483,-35.948 -43.515,-35.948c-24.032,0 -43.515,13.63 -43.515,35.948c0,1.03 0.086,2.048 0.253,3.049Z" style="fill:#ffd2d9;fill-rule:nonzero;"/><path d="M283.511,271.429c0,15.56 -19.483,28.163 -43.515,28.163c-24.032,0 -43.515,-12.604 -43.515,-28.163c0,-3.154 0.8,-6.453 2.288,-9.691c5.83,11.116 22.086,19.119 41.227,19.119c19.139,0 35.395,-8.003 41.225,-19.119c1.488,3.238 2.29,6.537 2.29,9.691Z" style="fill:#e8496b;fill-rule:nonzero;"/><path d="M239.996,238.604c-23.782,0 -40.392,13.5 -40.392,32.827c0,13.807 18.118,25.04 40.392,25.04c22.271,0 40.392,-11.233 40.392,-25.04c0,-19.327 -16.609,-32.827 -40.392,-32.827Zm0,64.114c-25.716,0 -46.638,-14.035 -46.638,-31.287c0,-23.004 19.179,-39.071 46.638,-39.071c27.459,0 46.636,16.068 46.636,39.071c0,17.252 -20.92,31.287 -46.636,31.287Z" style="fill:#650000;fill-rule:nonzero;"/><path d="M240.004,344.663c44.329,0 48.998,-47.571 48.998,-47.571c0,0 -15.014,15.25 -48.998,15.25c-33.984,0 -48.998,-15.25 -48.998,-15.25c0,0 4.667,47.571 48.998,47.571Z" style="fill:#650000;fill-rule:nonzero;"/><path d="M270.66,333.94c-7.15,6.233 -17.026,10.725 -30.656,10.725c-13.638,0 -23.514,-4.5 -30.664,-10.733c4.11,-5.333 10.563,-8.772 17.824,-8.772c4.772,0 9.196,1.486 12.839,4.033c3.643,-2.547 8.067,-4.033 12.832,-4.033c7.261,0 13.723,3.439 17.824,8.78Z" style="fill:#ffabab;fill-rule:nonzero;"/><path d="M195.562,304.382c3.295,12.799 13.614,37.159 44.442,37.159c30.823,0 41.145,-24.359 44.44,-37.159c-7.699,4.747 -22.151,11.081 -44.44,11.081c-22.293,0 -36.743,-6.334 -44.442,-11.081Zm44.442,43.404c-24.407,0 -37.313,-13.799 -43.844,-25.375c-6.951,-12.323 -8.211,-24.501 -8.262,-25.013c-0.129,-1.316 0.586,-2.572 1.784,-3.133c1.197,-0.561 2.621,-0.306 3.548,0.637c0.134,0.134 14.695,14.317 46.774,14.317c32.077,0 46.638,-14.183 46.78,-14.325c0.935,-0.933 2.356,-1.182 3.548,-0.619c1.192,0.563 1.906,1.811 1.778,3.123c-0.051,0.512 -1.312,12.69 -8.264,25.013c-6.529,11.576 -19.436,25.375 -43.842,25.375Z" style="fill:#650000;fill-rule:nonzero;"/><path d="M251.256,325.218c-2.115,0.222 -9.732,2.039 -11.253,8.9c-1.519,-6.862 -9.136,-8.678 -11.251,-8.9l2.3,-6.877l8.951,2.539l8.951,-2.539l2.301,6.877Z" style="fill:#650000;fill-rule:nonzero;"/><path d="M282.736,291.751c6.503,-3.988 15.63,3.528 11.393,10.478c-1.248,-1.756 -2.171,-3.392 -3.604,-4.852c-2.354,-2.298 -4.893,-3.587 -7.789,-5.625Z" style="fill:#650000;fill-rule:nonzero;"/><path d="M197.264,291.751c-2.893,2.039 -5.436,3.328 -7.789,5.625c-1.433,1.46 -2.354,3.094 -3.604,4.852c-4.239,-6.951 4.891,-14.465 11.393,-10.478Z" style="fill:#650000;fill-rule:nonzero;"/><g><g><g><path d="M196.859,231.605c1.769,18.404 -11.718,34.759 -30.122,36.528c-5.411,0.52 -10.643,-0.279 -15.381,-2.133c-3.519,-1.377 -6.762,-3.337 -9.606,-5.77c-1.378,-1.175 -2.654,-2.467 -3.822,-3.855c-4.088,-4.837 -6.838,-10.875 -7.635,-17.604c-0.03,-0.254 -0.059,-0.503 -0.084,-0.758c-1.769,-18.409 11.717,-34.764 30.121,-36.533c1.933,-0.186 3.839,-0.203 5.712,-0.061c6.66,0.491 12.851,2.955 17.915,6.858c1.436,1.111 2.78,2.332 4.022,3.654c2.55,2.718 4.653,5.866 6.182,9.347c1.416,3.192 2.345,6.666 2.697,10.33Z" style="fill:#f7c714;fill-rule:nonzero;"/></g><g><path d="M196.859,231.605c1.769,18.404 -11.718,34.759 -30.122,36.528c-5.411,0.52 -10.643,-0.279 -15.381,-2.133c-3.519,-1.377 -6.762,-3.337 -9.606,-5.77c-1.378,-1.175 -2.654,-2.467 -3.822,-3.855c-4.088,-4.837 -6.838,-10.875 -7.635,-17.604c-0.03,-0.254 -0.059,-0.503 -0.084,-0.758c-1.769,-18.409 11.717,-34.764 30.121,-36.533c1.933,-0.186 3.839,-0.203 5.712,-0.061c6.66,0.491 12.851,2.955 17.915,6.858c1.436,1.111 2.78,2.332 4.022,3.654c2.55,2.718 4.653,5.866 6.182,9.347c1.416,3.192 2.345,6.666 2.697,10.33Z" style="fill:none;fill-rule:nonzero;"/></g></g><g opacity="0.55"><path d="M196.859,231.605c0.08,0.834 0.128,1.665 0.148,2.488c-2.921,-17.125 -18.629,-29.345 -36.2,-27.656c-17.57,1.689 -30.663,16.677 -30.269,34.045c-0.137,-0.812 -0.248,-1.637 -0.329,-2.471c-1.769,-18.409 11.717,-34.764 30.121,-36.533c18.404,-1.769 34.759,11.718 36.528,30.127Z" style="fill:#fff;fill-rule:nonzero;"/></g><g><path d="M196.859,231.605c1.769,18.404 -11.718,34.759 -30.122,36.528c-18.404,1.769 -34.759,-11.718 -36.528,-30.122c-0.153,-1.593 -0.192,-3.17 -0.122,-4.726c3.833,15.966 18.937,27.081 35.748,25.465c16.811,-1.616 29.521,-15.404 30.243,-31.807c0.365,1.514 0.628,3.069 0.781,4.663Z" style="fill:#f89e1d;fill-rule:nonzero;"/></g><g><g><path d="M165.768,258.043c-12.813,1.231 -24.239,-8.191 -25.471,-21.004c-1.232,-12.813 8.191,-24.239 21.004,-25.471c12.813,-1.231 24.239,8.191 25.471,21.004c1.232,12.814 -8.191,24.24 -21.004,25.471Z" style="fill:#f9dd6a;fill-rule:nonzero;"/></g><g><path d="M165.768,258.043c-12.813,1.231 -24.239,-8.191 -25.471,-21.004c-1.232,-12.813 8.191,-24.239 21.004,-25.471c12.813,-1.231 24.239,8.191 25.471,21.004c1.232,12.814 -8.191,24.24 -21.004,25.471Z" style="fill:none;fill-rule:nonzero;"/></g></g><g opacity="0.55"><path d="M186.77,232.574c0.06,0.627 0.093,1.25 0.104,1.866c-2.099,-11.856 -13.031,-20.328 -25.217,-19.157c-12.186,1.171 -21.304,11.57 -21.106,23.609c-0.107,-0.606 -0.193,-1.225 -0.253,-1.851c-1.231,-12.813 8.189,-24.243 21.002,-25.475c12.813,-1.232 24.238,8.195 25.47,21.008Z" style="fill:#fff;fill-rule:nonzero;"/></g><g><g transform="matrix(0.999986,-0.005293,0.005293,0.999986,-0.878483,0.418737)"><text x="145.433px" y="242.749px" style="font-family:'Helvetica-Bold', 'Helvetica';font-weight:700;font-size:27.399px;fill:#66142e;">Rp</text></g></g><g opacity="0.27"><path d="M183.958,208.274l-46.029,48.099c-4.088,-4.837 -6.838,-10.875 -7.635,-17.604l35.75,-37.353c6.66,0.491 12.851,2.955 17.915,6.858Z" style="fill:#fce5e5;fill-rule:nonzero;"/></g><g opacity="0.27"><path d="M192.522,218.041l-42.707,47.033c-3.519,-1.377 -5.221,-2.411 -8.065,-4.844l46.23,-48.301c2.55,2.718 3.012,2.631 4.542,6.112Z" style="fill:#fce5e5;fill-rule:nonzero;"/></g><g><path d="M171.239,258.721c-1.69,0.544 -3.463,0.916 -5.301,1.093c-6.67,0.641 -13.197,-1.36 -18.38,-5.633c-5.183,-4.274 -8.39,-10.301 -9.031,-16.971c-0.641,-6.67 1.359,-13.197 5.633,-18.38c4.274,-5.183 10.3,-8.388 16.971,-9.031c6.67,-0.641 13.197,1.36 18.38,5.633c5.183,4.274 8.39,10.3 9.031,16.97c1.149,11.95 -6.315,22.781 -17.303,26.318Zm-14.341,-44.441c-3.88,1.249 -7.332,3.584 -9.994,6.812c-3.67,4.45 -5.387,10.053 -4.837,15.777c0.55,5.724 3.304,10.898 7.754,14.568c4.45,3.67 10.053,5.388 15.778,4.837c1.577,-0.151 3.1,-0.471 4.551,-0.938c9.434,-3.036 15.841,-12.333 14.855,-22.594c-0.55,-5.724 -3.304,-10.897 -7.754,-14.567c-4.45,-3.669 -10.053,-5.387 -15.777,-4.837c-1.572,0.151 -3.104,0.468 -4.574,0.942Z" style="fill:#66142e;fill-rule:nonzero;"/></g><g><path d="M174.456,268.707c-2.395,0.771 -4.909,1.298 -7.514,1.548c-5.626,0.541 -11.131,-0.223 -16.363,-2.271c-3.721,-1.455 -7.158,-3.52 -10.215,-6.135c-1.446,-1.233 -2.815,-2.614 -4.068,-4.103c-4.491,-5.315 -7.3,-11.792 -8.121,-18.727c-0.035,-0.296 -0.064,-0.548 -0.089,-0.805c-1.879,-19.548 12.491,-36.982 32.04,-38.86c2.025,-0.195 4.07,-0.217 6.077,-0.065c6.934,0.511 13.525,3.033 19.056,7.295c1.523,1.179 2.961,2.484 4.275,3.883c2.758,2.941 4.972,6.288 6.581,9.95c1.533,3.456 2.499,7.154 2.867,10.983c1.628,16.94 -8.952,32.292 -24.526,37.307Zm-20.534,-63.744c-13.71,4.414 -23.022,17.928 -21.589,32.843c0.022,0.229 0.048,0.451 0.074,0.678c0.727,6.137 3.198,11.835 7.15,16.513c1.104,1.313 2.307,2.526 3.577,3.609c2.696,2.307 5.723,4.125 8.998,5.406c4.603,1.801 9.448,2.473 14.4,1.996c2.292,-0.22 4.506,-0.684 6.614,-1.363c13.71,-4.413 23.021,-17.925 21.588,-32.837c-0.324,-3.373 -1.173,-6.626 -2.523,-9.67c-1.417,-3.224 -3.364,-6.167 -5.789,-8.752c-1.16,-1.235 -2.429,-2.388 -3.771,-3.426c-4.864,-3.748 -10.663,-5.968 -16.767,-6.418c-1.768,-0.134 -3.567,-0.114 -5.351,0.058c-2.292,0.22 -4.506,0.684 -6.613,1.363Z" style="fill:#66142e;fill-rule:nonzero;"/></g></g><g><g><g><path d="M349.79,231.605c1.769,18.404 -11.718,34.759 -30.122,36.528c-5.411,0.52 -10.643,-0.279 -15.381,-2.133c-3.519,-1.377 -6.762,-3.337 -9.606,-5.77c-1.378,-1.175 -2.654,-2.467 -3.822,-3.855c-4.088,-4.837 -6.838,-10.875 -7.635,-17.604c-0.03,-0.254 -0.059,-0.503 -0.084,-0.758c-1.769,-18.409 11.717,-34.764 30.121,-36.533c1.933,-0.186 3.839,-0.203 5.712,-0.061c6.66,0.491 12.851,2.955 17.915,6.858c1.436,1.111 2.78,2.332 4.022,3.654c2.55,2.718 4.653,5.866 6.182,9.347c1.416,3.192 2.345,6.666 2.697,10.33Z" style="fill:#f7c714;fill-rule:nonzero;"/></g><g><path d="M349.79,231.605c1.769,18.404 -11.718,34.759 -30.122,36.528c-5.411,0.52 -10.643,-0.279 -15.381,-2.133c-3.519,-1.377 -6.762,-3.337 -9.606,-5.77c-1.378,-1.175 -2.654,-2.467 -3.822,-3.855c-4.088,-4.837 -6.838,-10.875 -7.635,-17.604c-0.03,-0.254 -0.059,-0.503 -0.084,-0.758c-1.769,-18.409 11.717,-34.764 30.121,-36.533c1.933,-0.186 3.839,-0.203 5.712,-0.061c6.66,0.491 12.851,2.955 17.915,6.858c1.436,1.111 2.78,2.332 4.022,3.654c2.55,2.718 4.653,5.866 6.182,9.347c1.416,3.192 2.345,6.666 2.697,10.33Z" style="fill:none;fill-rule:nonzero;"/></g></g><g opacity="0.55"><path d="M349.79,231.605c0.08,0.834 0.128,1.665 0.148,2.488c-2.921,-17.125 -18.629,-29.345 -36.2,-27.656c-17.57,1.689 -30.663,16.677 -30.269,34.045c-0.137,-0.812 -0.248,-1.637 -0.329,-2.471c-1.769,-18.409 11.717,-34.764 30.121,-36.533c18.404,-1.769 34.759,11.718 36.528,30.127Z" style="fill:#fff;fill-rule:nonzero;"/></g><g><path d="M349.79,231.605c1.769,18.404 -11.718,34.759 -30.122,36.528c-18.404,1.769 -34.759,-11.718 -36.528,-30.122c-0.153,-1.593 -0.192,-3.17 -0.122,-4.726c3.833,15.966 18.937,27.081 35.748,25.465c16.811,-1.616 29.521,-15.404 30.243,-31.807c0.365,1.514 0.628,3.069 0.781,4.663Z" style="fill:#f89e1d;fill-rule:nonzero;"/></g><g><g><path d="M318.699,258.043c-12.813,1.231 -24.239,-8.191 -25.471,-21.004c-1.232,-12.813 8.191,-24.239 21.004,-25.471c12.813,-1.231 24.239,8.191 25.471,21.004c1.232,12.814 -8.191,24.24 -21.004,25.471Z" style="fill:#f9dd6a;fill-rule:nonzero;"/></g><g><path d="M318.699,258.043c-12.813,1.231 -24.239,-8.191 -25.471,-21.004c-1.232,-12.813 8.191,-24.239 21.004,-25.471c12.813,-1.231 24.239,8.191 25.471,21.004c1.232,12.814 -8.191,24.24 -21.004,25.471Z" style="fill:none;fill-rule:nonzero;"/></g></g><g opacity="0.55"><path d="M339.701,232.574c0.06,0.627 0.093,1.25 0.104,1.866c-2.099,-11.856 -13.031,-20.328 -25.217,-19.157c-12.186,1.171 -21.304,11.57 -21.106,23.609c-0.107,-0.606 -0.193,-1.225 -0.253,-1.851c-1.231,-12.813 8.189,-24.243 21.002,-25.475c12.813,-1.232 24.238,8.195 25.47,21.008Z" style="fill:#fff;fill-rule:nonzero;"/></g><g><g transform="matrix(0.999986,-0.005293,0.005293,0.999986,-0.876341,1.228239)"><text x="298.364px" y="242.749px" style="font-family:'Helvetica-Bold', 'Helvetica';font-weight:700;font-size:27.399px;fill:#66142e;">Rp</text></g></g><g opacity="0.27"><path d="M336.889,208.274l-46.029,48.099c-4.088,-4.837 -6.838,-10.875 -7.635,-17.604l35.75,-37.353c6.66,0.491 12.851,2.955 17.915,6.858Z" style="fill:#fce5e5;fill-rule:nonzero;"/></g><g opacity="0.27"><path d="M345.453,218.041l-42.707,47.033c-3.519,-1.377 -5.221,-2.411 -8.065,-4.844l46.23,-48.301c2.55,2.718 3.012,2.631 4.542,6.112Z" style="fill:#fce5e5;fill-rule:nonzero;"/></g><g><path d="M324.17,258.721c-1.69,0.544 -3.463,0.916 -5.301,1.093c-6.67,0.641 -13.197,-1.36 -18.38,-5.633c-5.183,-4.274 -8.39,-10.301 -9.031,-16.971c-0.641,-6.67 1.359,-13.197 5.633,-18.38c4.274,-5.183 10.3,-8.388 16.971,-9.031c6.67,-0.641 13.197,1.36 18.38,5.633c5.183,4.274 8.39,10.3 9.031,16.97c1.149,11.95 -6.315,22.781 -17.303,26.318Zm-14.341,-44.441c-3.88,1.249 -7.332,3.584 -9.994,6.812c-3.67,4.45 -5.387,10.053 -4.837,15.777c0.55,5.724 3.304,10.898 7.754,14.568c4.45,3.67 10.053,5.388 15.778,4.837c1.577,-0.151 3.1,-0.471 4.551,-0.938c9.434,-3.036 15.841,-12.333 14.855,-22.594c-0.55,-5.724 -3.304,-10.897 -7.754,-14.567c-4.45,-3.669 -10.053,-5.387 -15.777,-4.837c-1.572,0.151 -3.104,0.468 -4.574,0.942Z" style="fill:#66142e;fill-rule:nonzero;"/></g><g><path d="M327.387,268.707c-2.395,0.771 -4.909,1.298 -7.514,1.548c-5.626,0.541 -11.131,-0.223 -16.363,-2.271c-3.721,-1.455 -7.158,-3.52 -10.215,-6.135c-1.446,-1.233 -2.815,-2.614 -4.068,-4.103c-4.491,-5.315 -7.3,-11.792 -8.121,-18.727c-0.035,-0.296 -0.064,-0.548 -0.089,-0.805c-1.879,-19.548 12.491,-36.982 32.04,-38.86c2.025,-0.195 4.07,-0.217 6.077,-0.065c6.934,0.511 13.525,3.033 19.056,7.295c1.523,1.179 2.961,2.484 4.275,3.883c2.758,2.941 4.972,6.288 6.581,9.95c1.533,3.456 2.499,7.154 2.867,10.983c1.628,16.94 -8.952,32.292 -24.526,37.307Zm-20.534,-63.744c-13.71,4.414 -23.022,17.928 -21.589,32.843c0.022,0.229 0.048,0.451 0.074,0.678c0.727,6.137 3.198,11.835 7.15,16.513c1.104,1.313 2.307,2.526 3.577,3.609c2.696,2.307 5.723,4.125 8.998,5.406c4.603,1.801 9.448,2.473 14.4,1.996c2.292,-0.22 4.506,-0.684 6.614,-1.363c13.71,-4.413 23.021,-17.925 21.588,-32.837c-0.324,-3.373 -1.173,-6.626 -2.523,-9.67c-1.417,-3.224 -3.364,-6.167 -5.789,-8.752c-1.16,-1.235 -2.429,-2.388 -3.771,-3.426c-4.864,-3.748 -10.663,-5.968 -16.767,-6.418c-1.768,-0.134 -3.567,-0.114 -5.351,0.058c-2.292,0.22 -4.506,0.684 -6.613,1.363Z" style="fill:#66142e;fill-rule:nonzero;"/></g></g><ellipse cx="222.595" cy="288.568" rx="6.159" ry="7.904" style="fill:#66142e;"/><ellipse cx="257.415" cy="288.568" rx="6.159" ry="7.904" style="fill:#66142e;"/></g></svg>