<?xml version="1.0" encoding="UTF-8" standalone="no"?><!DOCTYPE svg PUBLIC "-//W3C//DTD SVG 1.1//EN" "http://www.w3.org/Graphics/SVG/1.1/DTD/svg11.dtd"><svg width="100%" height="100%" viewBox="0 0 406 480" version="1.1" xmlns="http://www.w3.org/2000/svg" xmlns:xlink="http://www.w3.org/1999/xlink" xml:space="preserve" xmlns:serif="http://www.serif.com/" style="fill-rule:evenodd;clip-rule:evenodd;stroke-linejoin:round;stroke-miterlimit:2;"><g><g><path d="M161.331,60.334c46.897,14.206 98.119,73.657 98.16,193.184c0,0 0.003,0.02 0.003,0.068c-0.001,0.347 -0.001,0.693 -0.002,1.04c-0.004,2.254 -0.029,4.531 -0.071,6.836c-37.565,58.602 -78.401,91.457 -115.489,106.546c-9.025,3.673 -17.83,6.291 -26.312,7.972c-19.181,3.806 -36.708,2.818 -51.411,-1.636c-47.922,-14.517 -75.007,-65.136 -60.487,-113.067c9.038,-29.836 26.195,-45.353 50.822,-61.273c-11.651,-26.914 -17.314,-49.34 -8.276,-79.176c14.52,-47.931 65.142,-75.01 113.064,-60.493Z" style="fill:#ff454e;fill-rule:nonzero;"/><path d="M161.331,60.334c18.086,5.479 36.821,17.695 53.012,37.488c25.783,31.523 45.119,82.278 45.147,155.696c0,0 0.003,0.02 0.003,0.068c-0.001,0.347 -0.001,0.693 -0.002,1.04c-0.004,2.254 -0.029,4.531 -0.071,6.836c-37.565,58.602 -78.401,91.457 -115.489,106.546c-9.025,3.673 -17.83,6.291 -26.312,7.972c-7.033,1.398 -13.843,2.147 -20.372,2.315c-11.28,0.302 -21.726,-1.13 -31.04,-3.951c-47.922,-14.517 -75.007,-65.136 -60.487,-113.067c9.038,-29.836 26.195,-45.353 50.822,-61.273c-11.651,-26.914 -17.314,-49.34 -8.276,-79.176c14.52,-47.931 65.142,-75.01 113.064,-60.493Z" style="fill:#ff454e;fill-rule:nonzero;"/><path d="M214.343,97.821c25.783,31.523 45.119,82.278 45.147,155.696c0,0 0.003,0.02 0.003,0.068c-0.001,0.347 -0.001,0.693 -0.002,1.04c-0.004,2.254 -0.029,4.531 -0.071,6.836c-37.565,58.602 -78.401,91.457 -115.489,106.546c-9.025,3.673 -17.83,6.291 -26.312,7.972c-7.033,1.398 -13.843,2.147 -20.372,2.315c-15.794,-64.499 -37.677,-181.311 18.051,-157.947c45.256,18.976 92.494,13.539 108.373,-25.536c14.704,-36.189 -0.54,-65.971 -9.329,-96.99Z" style="fill:#e02d3e;fill-rule:nonzero;"/><path d="M183.751,72.692c-5.388,-2.826 -10.803,-5.04 -16.16,-6.663c-33.885,-10.265 -69.118,0.268 -91.986,24.257c2.602,1.88 3.095,6.197 1.625,11.049c-0.671,2.216 -1.752,4.543 -3.228,6.801c-4.773,7.292 -11.859,11.1 -15.865,8.525c-1.375,3.173 -2.586,6.464 -3.613,9.856c-8.485,28.009 -4.014,49.487 6.196,74.264c-1.457,0.447 -2.899,0.942 -4.327,1.488c0.377,-0.246 0.757,-0.493 1.137,-0.739c0.373,-0.241 0.632,-0.6 0.753,-1c0.121,-0.4 0.105,-0.842 -0.072,-1.249c-11.853,-27.376 -16.994,-48.904 -8.201,-77.93c14.204,-46.888 63.905,-73.479 110.794,-59.275c7.904,2.394 15.593,5.968 22.947,10.616Z" style="fill:#ff868c;fill-rule:nonzero;"/><path d="M7.462,261.807c-14.204,46.889 12.386,96.591 59.275,110.795c26.063,7.895 57.304,3.824 87.969,-11.463c37.056,-18.474 72.632,-53.125 102.907,-100.225c0.952,-55.983 -9.414,-104.551 -29.989,-140.483c-17.026,-29.734 -40.756,-50.458 -66.819,-58.354c-46.889,-14.204 -96.59,12.387 -110.794,59.275c-8.793,29.026 -3.652,50.553 8.201,77.93c0.353,0.815 0.065,1.767 -0.681,2.249c-25.052,16.197 -41.275,31.251 -50.068,60.277Zm253.7,0.181c-0.048,0.159 -0.119,0.312 -0.211,0.453c-16.128,25.162 -33.677,46.816 -52.157,64.364c-16.816,15.968 -34.468,28.614 -52.466,37.586c-31.5,15.703 -63.692,19.855 -90.646,11.69c-48.807,-14.785 -76.486,-66.522 -61.701,-115.329c8.92,-29.446 25.868,-45.484 50.285,-61.439c-11.459,-26.822 -16.657,-49.571 -7.737,-79.017c14.785,-48.807 66.522,-76.486 115.329,-61.701c26.955,8.165 51.431,29.484 68.921,60.027c9.993,17.452 17.659,37.768 22.788,60.383c5.635,24.853 8.217,52.606 7.671,82.488c-0.002,0.169 -0.028,0.335 -0.076,0.494Z" style="fill:#650000;fill-rule:nonzero;"/></g><g><g><g><g><path d="M250.42,473.901c-1.061,-0.419 -2.089,-0.953 -3.056,-1.584c-0.14,-0.086 -0.286,-0.184 -0.43,-0.289l-153.35,-106.626c-3.469,-2.408 -5.977,-5.969 -7.077,-10.044l-0.053,-0.176c-0.967,-3.71 -0.732,-7.56 0.681,-11.133l57.663,-145.856c1.183,-2.991 3.202,-5.538 5.842,-7.365l0.451,0.538c-2.2,2.217 -3.238,4.745 -3.002,7.308c0.282,3.054 2.331,6.048 5.77,8.428l162.123,111.408c6.498,4.515 9.004,12.805 6.096,20.161l-49.685,125.675c-3.439,8.7 -13.297,12.986 -21.975,9.555Z" style="fill:#e67e22;fill-rule:nonzero;"/></g><g><path d="M150.841,191.118c-5.383,5.425 -3.446,11.939 2.818,16.274c0.017,0.014 0.037,0.022 0.054,0.036l162.07,111.372c6.33,4.399 8.802,12.573 5.968,19.741l-49.685,125.675c-3.447,8.72 -13.233,12.632 -21.517,9.357c-1.026,-0.406 -2.028,-0.921 -2.993,-1.551c-0.14,-0.086 -0.279,-0.178 -0.414,-0.278l-153.358,-106.631c-3.553,-2.466 -5.956,-6.055 -6.983,-10.018l-0.007,-0.003c-0.919,-3.526 -0.748,-7.334 0.668,-10.915l57.663,-145.855c1.198,-3.03 3.219,-5.477 5.715,-7.205m-0.401,-0.58c-2.697,1.868 -4.761,4.47 -5.97,7.526l-57.663,145.856c-1.44,3.643 -1.68,7.569 -0.694,11.352l0.091,0.346l0.01,0.004c1.145,4.084 3.68,7.65 7.169,10.071l153.357,106.631c0.133,0.098 0.289,0.202 0.449,0.3c0.969,0.633 2.018,1.177 3.101,1.605c8.859,3.502 18.922,-0.873 22.432,-9.754l49.685,-125.675c2.969,-7.509 0.411,-15.971 -6.221,-20.579l-162.048,-111.357l-0.018,-0.014l-0.052,-0.032l-0.007,-0.005c-3.352,-2.32 -5.348,-5.221 -5.62,-8.17c-0.227,-2.456 0.776,-4.886 2.901,-7.027l-0.902,-1.077Z" style="fill:#66142e;fill-rule:nonzero;"/></g></g><g><g><path d="M142.75,214.08c-0.221,-0.087 -0.423,-0.232 -0.582,-0.431c-1.088,-1.363 -1.908,-2.776 -2.507,-4.321c-0.281,-0.727 0.08,-1.544 0.807,-1.824c0.726,-0.281 1.543,0.079 1.825,0.806c0.493,1.274 1.173,2.445 2.079,3.579c0.486,0.608 0.387,1.496 -0.222,1.982c-0.409,0.327 -0.946,0.389 -1.4,0.209Z" style="fill:#fff;fill-rule:nonzero;"/></g><g><path d="M251.549,462.737c-0.1,-0.039 -0.197,-0.09 -0.288,-0.154l-7.495,-5.211c-0.639,-0.445 -0.797,-1.324 -0.353,-1.963c0.445,-0.639 1.325,-0.796 1.963,-0.353l7.495,5.211c0.639,0.445 0.797,1.324 0.353,1.963c-0.381,0.548 -1.081,0.742 -1.675,0.507Zm8.226,0.561c-0.184,-0.073 -0.356,-0.185 -0.501,-0.338c-0.538,-0.564 -0.516,-1.456 0.048,-1.994c0.405,-0.386 0.721,-0.862 0.94,-1.417l2.501,-6.325c0.286,-0.724 1.106,-1.079 1.83,-0.793c0.724,0.286 1.079,1.106 0.793,1.83l-2.501,6.325c-0.37,0.937 -0.914,1.752 -1.617,2.422c-0.411,0.392 -0.997,0.486 -1.493,0.29Zm-23.215,-10.983c-0.1,-0.039 -0.197,-0.09 -0.288,-0.154l-7.494,-5.211c-0.639,-0.445 -0.797,-1.324 -0.353,-1.963c0.445,-0.64 1.325,-0.797 1.963,-0.353l7.494,5.211c0.639,0.445 0.797,1.324 0.353,1.963c-0.381,0.548 -1.081,0.742 -1.675,0.507Zm-14.989,-10.422c-0.099,-0.039 -0.196,-0.09 -0.288,-0.154l-7.494,-5.211c-0.639,-0.445 -0.797,-1.324 -0.353,-1.963c0.445,-0.639 1.327,-0.797 1.963,-0.353l7.494,5.211c0.639,0.445 0.797,1.324 0.353,1.963c-0.381,0.548 -1.081,0.742 -1.676,0.507Zm-14.989,-10.422c-0.099,-0.039 -0.196,-0.09 -0.288,-0.154l-7.495,-5.211c-0.639,-0.445 -0.797,-1.324 -0.353,-1.963c0.444,-0.639 1.323,-0.797 1.963,-0.353l7.495,5.211c0.639,0.445 0.797,1.324 0.353,1.963c-0.381,0.548 -1.081,0.742 -1.676,0.507Zm-14.989,-10.422c-0.099,-0.039 -0.196,-0.09 -0.288,-0.154l-7.494,-5.211c-0.639,-0.445 -0.797,-1.324 -0.353,-1.963c0.444,-0.639 1.323,-0.797 1.963,-0.353l7.494,5.211c0.639,0.445 0.797,1.324 0.353,1.964c-0.381,0.548 -1.081,0.742 -1.676,0.507Zm75.318,25.515c-0.724,-0.286 -1.079,-1.106 -0.793,-1.83l3.356,-8.488c0.286,-0.724 1.106,-1.079 1.83,-0.793c0.724,0.286 1.079,1.106 0.793,1.83l-3.356,8.488c-0.286,0.724 -1.106,1.08 -1.83,0.793Zm-90.307,-35.937c-0.1,-0.039 -0.197,-0.09 -0.288,-0.154l-7.494,-5.211c-0.639,-0.445 -0.797,-1.324 -0.353,-1.963c0.444,-0.639 1.323,-0.799 1.963,-0.353l7.494,5.211c0.639,0.445 0.797,1.324 0.353,1.963c-0.381,0.548 -1.081,0.742 -1.675,0.507Zm-14.988,-10.422c-0.1,-0.039 -0.197,-0.09 -0.288,-0.154l-7.494,-5.211c-0.639,-0.445 -0.797,-1.324 -0.353,-1.963c0.444,-0.639 1.323,-0.799 1.963,-0.353l7.494,5.211c0.639,0.445 0.797,1.324 0.353,1.964c-0.381,0.548 -1.081,0.742 -1.675,0.507Zm-14.989,-10.422c-0.1,-0.039 -0.197,-0.09 -0.288,-0.154l-7.494,-5.211c-0.639,-0.445 -0.797,-1.324 -0.353,-1.964c0.445,-0.64 1.325,-0.796 1.963,-0.353l7.494,5.211c0.639,0.445 0.797,1.324 0.353,1.963c-0.381,0.548 -1.081,0.742 -1.675,0.507Zm-14.988,-10.422c-0.1,-0.039 -0.197,-0.09 -0.288,-0.154l-7.495,-5.211c-0.639,-0.445 -0.797,-1.324 -0.353,-1.963c0.445,-0.64 1.324,-0.796 1.963,-0.353l7.495,5.211c0.639,0.445 0.797,1.324 0.353,1.963c-0.381,0.548 -1.081,0.742 -1.675,0.507Zm-14.989,-10.422c-0.1,-0.039 -0.197,-0.09 -0.288,-0.154l-7.494,-5.211c-0.639,-0.445 -0.797,-1.324 -0.353,-1.964c0.445,-0.639 1.326,-0.796 1.963,-0.353l7.494,5.211c0.639,0.445 0.797,1.324 0.353,1.963c-0.381,0.548 -1.081,0.742 -1.675,0.507Zm156.973,60.646c-0.724,-0.286 -1.08,-1.106 -0.793,-1.83l3.356,-8.488c0.286,-0.724 1.106,-1.079 1.83,-0.793c0.724,0.286 1.079,1.106 0.793,1.83l-3.356,8.488c-0.286,0.724 -1.106,1.08 -1.83,0.793Zm-171.962,-71.068c-0.099,-0.039 -0.196,-0.09 -0.288,-0.155l-1.951,-1.357c-2.176,-1.368 -4.015,-2.715 -5.569,-4.083c-0.585,-0.515 -0.641,-1.406 -0.126,-1.991c0.515,-0.585 1.406,-0.639 1.991,-0.126c1.439,1.267 3.16,2.527 5.261,3.849l2.005,1.393c0.64,0.445 0.797,1.323 0.353,1.963c-0.381,0.548 -1.081,0.742 -1.676,0.507Zm178.674,54.091c-0.724,-0.286 -1.08,-1.106 -0.793,-1.83l3.356,-8.488c0.286,-0.724 1.106,-1.079 1.83,-0.793c0.724,0.286 1.079,1.106 0.793,1.83l-3.356,8.488c-0.286,0.724 -1.106,1.08 -1.83,0.793Zm6.712,-16.977c-0.724,-0.286 -1.079,-1.106 -0.793,-1.83l3.356,-8.488c0.286,-0.724 1.106,-1.079 1.83,-0.793c0.724,0.286 1.079,1.106 0.793,1.83l-3.356,8.488c-0.286,0.724 -1.106,1.08 -1.83,0.793Zm6.712,-16.977c-0.724,-0.286 -1.079,-1.106 -0.793,-1.83l3.356,-8.488c0.286,-0.724 1.106,-1.079 1.83,-0.793c0.724,0.286 1.08,1.106 0.793,1.83l-3.356,8.488c-0.286,0.724 -1.106,1.08 -1.83,0.793Zm6.712,-16.977c-0.724,-0.286 -1.079,-1.106 -0.793,-1.83l3.356,-8.489c0.286,-0.724 1.106,-1.079 1.83,-0.793c0.724,0.286 1.079,1.106 0.793,1.83l-3.356,8.489c-0.286,0.724 -1.106,1.08 -1.83,0.793Zm6.712,-16.977c-0.724,-0.286 -1.08,-1.106 -0.793,-1.83l3.356,-8.489c0.286,-0.724 1.106,-1.079 1.83,-0.793c0.724,0.286 1.079,1.106 0.793,1.83l-3.356,8.489c-0.286,0.724 -1.106,1.08 -1.83,0.793Zm0.458,-16.138c-0.097,-0.038 -0.192,-0.088 -0.281,-0.15l-7.523,-5.169c-0.642,-0.441 -0.805,-1.319 -0.364,-1.961c0.441,-0.642 1.32,-0.802 1.961,-0.364l7.523,5.169c0.642,0.441 0.805,1.319 0.364,1.961c-0.379,0.552 -1.082,0.75 -1.68,0.514Zm-15.046,-10.339c-0.097,-0.038 -0.192,-0.088 -0.281,-0.15l-7.523,-5.17c-0.642,-0.441 -0.805,-1.319 -0.364,-1.961c0.441,-0.642 1.322,-0.802 1.961,-0.364l7.523,5.17c0.642,0.441 0.805,1.319 0.364,1.961c-0.379,0.552 -1.082,0.75 -1.68,0.514Zm-15.046,-10.339c-0.097,-0.038 -0.192,-0.088 -0.281,-0.15l-7.523,-5.17c-0.642,-0.441 -0.805,-1.319 -0.364,-1.961c0.441,-0.642 1.321,-0.802 1.961,-0.364l7.523,5.17c0.642,0.441 0.805,1.319 0.364,1.961c-0.379,0.552 -1.082,0.75 -1.68,0.514Zm-15.046,-10.339c-0.097,-0.038 -0.192,-0.088 -0.281,-0.15l-7.523,-5.17c-0.642,-0.441 -0.805,-1.319 -0.364,-1.961c0.441,-0.642 1.32,-0.802 1.961,-0.364l7.523,5.17c0.642,0.441 0.805,1.319 0.364,1.961c-0.379,0.552 -1.082,0.75 -1.68,0.514Zm-15.045,-10.34c-0.097,-0.038 -0.192,-0.088 -0.281,-0.15l-7.523,-5.169c-0.642,-0.441 -0.805,-1.319 -0.364,-1.961c0.441,-0.642 1.321,-0.8 1.961,-0.364l7.523,5.169c0.642,0.441 0.805,1.319 0.364,1.961c-0.379,0.552 -1.082,0.75 -1.68,0.514Zm-15.046,-10.339c-0.097,-0.038 -0.192,-0.088 -0.281,-0.15l-7.523,-5.169c-0.642,-0.441 -0.805,-1.319 -0.364,-1.961c0.441,-0.642 1.32,-0.8 1.961,-0.364l7.523,5.169c0.642,0.441 0.805,1.319 0.364,1.961c-0.379,0.552 -1.082,0.75 -1.68,0.514Zm-15.046,-10.339c-0.097,-0.038 -0.192,-0.088 -0.281,-0.15l-7.523,-5.169c-0.642,-0.441 -0.805,-1.319 -0.364,-1.961c0.441,-0.642 1.32,-0.802 1.961,-0.364l7.523,5.169c0.642,0.441 0.805,1.319 0.364,1.961c-0.379,0.552 -1.082,0.75 -1.68,0.514Zm-15.046,-10.339c-0.097,-0.038 -0.192,-0.088 -0.281,-0.15l-7.523,-5.17c-0.642,-0.441 -0.805,-1.319 -0.364,-1.961c0.441,-0.642 1.321,-0.801 1.961,-0.364l7.523,5.17c0.642,0.441 0.805,1.319 0.364,1.961c-0.379,0.552 -1.082,0.75 -1.68,0.514Zm-15.046,-10.339c-0.097,-0.038 -0.192,-0.088 -0.281,-0.15l-7.523,-5.17c-0.642,-0.441 -0.805,-1.319 -0.364,-1.961c0.441,-0.642 1.32,-0.801 1.961,-0.364l7.523,5.17c0.642,0.441 0.805,1.319 0.364,1.961c-0.38,0.552 -1.082,0.75 -1.68,0.514Zm-15.046,-10.339c-0.097,-0.038 -0.192,-0.088 -0.281,-0.15l-7.523,-5.17c-0.642,-0.441 -0.805,-1.319 -0.364,-1.961c0.441,-0.642 1.322,-0.802 1.961,-0.364l7.523,5.17c0.642,0.441 0.805,1.319 0.364,1.961c-0.379,0.552 -1.082,0.75 -1.68,0.514Zm-15.046,-10.339c-0.097,-0.038 -0.192,-0.088 -0.281,-0.15l-7.523,-5.17c-0.642,-0.441 -0.805,-1.319 -0.364,-1.961c0.441,-0.642 1.321,-0.802 1.961,-0.364l7.523,5.17c0.642,0.441 0.805,1.319 0.364,1.961c-0.379,0.552 -1.082,0.75 -1.68,0.514Z" style="fill:#fff;fill-rule:nonzero;"/></g><g><path d="M88.992,345.831c-0.381,-0.151 -0.693,-0.465 -0.826,-0.885c-0.535,-1.687 -0.684,-3.42 -0.443,-5.15c0.108,-0.771 0.821,-1.31 1.592,-1.202c0.773,0.105 1.309,0.821 1.202,1.591c-0.183,1.31 -0.069,2.625 0.337,3.907c0.236,0.743 -0.175,1.536 -0.918,1.771c-0.322,0.102 -0.653,0.082 -0.944,-0.033Z" style="fill:#fff;fill-rule:nonzero;"/></g></g><g opacity="0.55"><g><path d="M147.751,197.131c-2.027,1.656 -3.67,3.835 -4.699,6.439l2.074,-5.247c1.198,-3.03 3.219,-5.477 5.715,-7.205c-1.903,1.917 -2.889,3.969 -3.09,6.013Z" style="fill:#fff;fill-rule:nonzero;"/></g><g><path d="M147.751,197.131c-2.027,1.656 -3.67,3.835 -4.699,6.439l2.074,-5.247c1.198,-3.03 3.219,-5.477 5.715,-7.205c-1.903,1.917 -2.889,3.969 -3.09,6.013Z" style="fill:none;fill-rule:nonzero;"/></g></g><g opacity="0.55"><path d="M321.751,338.541l-2.074,5.247c2.834,-7.169 0.363,-15.342 -5.967,-19.741l-162.07,-111.372c-0.017,-0.014 -0.037,-0.022 -0.054,-0.036c-5.813,-4.019 -7.902,-9.919 -3.866,-15.081c-0.179,3.6 2.039,7.138 5.941,9.834c0.017,0.014 0.037,0.022 0.054,0.036l162.07,111.372c6.33,4.398 8.801,12.572 5.967,19.741Z" style="fill:#fff;fill-rule:nonzero;"/></g><g opacity="0.55"><g><path d="M148.767,196.365c-0.39,0.392 -0.738,0.793 -1.048,1.193c0.003,-0.143 0.013,-0.283 0.032,-0.427c0.325,-0.266 0.663,-0.527 1.016,-0.766Z" style="fill:#fff;fill-rule:nonzero;"/></g><g><path d="M148.767,196.365c-0.39,0.392 -0.738,0.793 -1.048,1.193c0.003,-0.143 0.013,-0.283 0.032,-0.427c0.325,-0.266 0.663,-0.527 1.016,-0.766Z" style="fill:none;fill-rule:nonzero;"/></g></g><g><path d="M249.767,475.537c-1.167,-0.461 -2.295,-1.043 -3.367,-1.745c-0.138,-0.083 -0.326,-0.209 -0.51,-0.344l-153.312,-106.599c-7.553,-5.247 -10.466,-14.89 -7.082,-23.45l57.663,-145.855c1.311,-3.316 3.551,-6.14 6.478,-8.167c0.899,-0.622 2.124,-0.456 2.826,0.381c0.702,0.838 0.65,2.073 -0.12,2.849c-1.847,1.862 -2.687,3.848 -2.498,5.904c0.233,2.524 2.013,5.059 5.012,7.136c0.018,0.012 0.036,0.024 0.054,0.036l162.07,111.372c7.181,4.99 9.947,14.142 6.737,22.262l-49.685,125.675c-2.077,5.253 -6.354,9.246 -11.737,10.957c-4.16,1.322 -8.565,1.153 -12.53,-0.414Zm-103.592,-274.114l-56.745,143.533c-2.658,6.724 -0.371,14.298 5.562,18.419l153.358,106.632c0.132,0.096 0.22,0.154 0.31,0.21c3.703,2.418 8.187,3.027 12.354,1.701c4.166,-1.324 7.477,-4.415 9.084,-8.48l49.685,-125.675c2.485,-6.285 0.344,-13.369 -5.207,-17.225l-162.061,-111.366c-0.019,-0.012 -0.039,-0.026 -0.059,-0.04l-0.001,0.001c-3.142,-2.174 -5.304,-4.848 -6.28,-7.708Z" style="fill:#66142e;fill-rule:nonzero;"/></g><g><g><path d="M337.271,332.854c1.619,-4.095 1.522,-8.571 -0.274,-12.601c-1.204,-2.703 -3.127,-5.026 -5.561,-6.719l-170.394,-115.024l198.524,78.484c4.816,1.904 8.451,5.839 9.974,10.797c1.149,3.705 0.998,7.583 -0.437,11.212l-50.019,126.521c-0.694,1.756 -1.664,3.366 -2.883,4.786c-3.268,3.822 -8.023,5.984 -13.048,5.932c-2.026,-0.023 -4.019,-0.404 -5.925,-1.134l-0.333,-0.128l40.375,-102.126l0,0Z" style="fill:#e67e22;fill-rule:nonzero;"/></g><g><g><path d="M359.437,277.323c4.886,1.932 8.337,5.92 9.766,10.573c1.08,3.483 1.014,7.332 -0.428,10.979l-50.019,126.521c-0.695,1.758 -1.656,3.327 -2.823,4.686c-3.188,3.729 -7.89,5.859 -12.777,5.809c-1.933,-0.021 -3.892,-0.379 -5.802,-1.111l40.244,-101.795c1.688,-4.269 1.492,-8.897 -0.28,-12.874c-1.201,-2.697 -3.13,-5.09 -5.682,-6.864l-167.718,-113.218l195.517,77.296m0.259,-0.656l-201.53,-79.673l5.358,3.617l167.718,113.219c2.373,1.65 4.254,3.923 5.432,6.567c1.757,3.943 1.852,8.321 0.268,12.328l-40.506,102.458l0.665,0.255c1.945,0.745 3.979,1.135 6.047,1.158c5.13,0.053 9.985,-2.154 13.321,-6.055c1.244,-1.449 2.234,-3.093 2.943,-4.885l50.019,-126.521c1.465,-3.705 1.619,-7.663 0.445,-11.448c-1.554,-5.059 -5.265,-9.076 -10.181,-11.02Z" style="fill:#66142e;fill-rule:nonzero;"/></g></g></g><g opacity="0.3"><path d="M368.776,298.874l-50.019,126.521c-0.695,1.758 -1.656,3.327 -2.823,4.685c-3.188,3.73 -7.89,5.86 -12.777,5.809c-1.933,-0.021 -3.892,-0.379 -5.802,-1.111l40.244,-101.795c1.688,-4.27 1.493,-8.897 -0.28,-12.874l10.95,-27.697l4.274,-0.586c8.436,3.062 15.478,4.011 16.661,-3.932c1.08,3.483 1.014,7.332 -0.427,10.979Z" style="fill:#66142e;fill-rule:nonzero;"/></g><g><path d="M296.577,436.746c-0.518,-0.205 -0.935,-0.606 -1.159,-1.116c-0.227,-0.517 -0.238,-1.104 -0.03,-1.629l40.244,-101.795c2.484,-6.284 0.346,-13.367 -5.201,-17.224l-167.694,-113.202c-0.895,-0.604 -1.191,-1.785 -0.688,-2.74c0.504,-0.955 1.646,-1.378 2.65,-0.981l195.517,77.296c9.601,3.796 14.325,14.695 10.529,24.298l-50.019,126.521c-0.766,1.938 -1.838,3.717 -3.185,5.286c-3.605,4.217 -8.856,6.603 -14.404,6.546c-2.237,-0.025 -4.436,-0.445 -6.537,-1.251c-0.007,-0.003 -0.014,-0.005 -0.02,-0.008Zm-115.398,-227.621l151.642,102.366c7.191,4.999 9.955,14.15 6.745,22.27l-39.401,99.663c0.989,0.222 1.997,0.339 3.015,0.35c4.291,0.044 8.354,-1.803 11.145,-5.068c1.043,-1.215 1.871,-2.589 2.464,-4.089l50.019,-126.521c2.938,-7.432 -0.718,-15.869 -8.149,-18.807l-177.48,-70.165l-0,0Z" style="fill:#66142e;fill-rule:nonzero;"/></g><g opacity="0.3"><path d="M166.91,202.045l38.882,15.372l-1.542,8.58l-37.341,-23.952Z" style="fill:#66142e;fill-rule:nonzero;"/></g><g opacity="0.3"><path d="M225.516,241.609l124.895,49.376c14.643,6.123 19.525,2.213 18.157,-4.819c-2.265,-7.748 -13.83,-11.768 -28.066,-14.717l-114.986,-29.84Z" style="fill:#66142e;fill-rule:nonzero;"/></g><g><g><path d="M254.575,476.191c-2.44,-0.964 -4.868,-2.269 -7.217,-3.878l0.393,-0.586c0.927,0.606 1.912,1.117 2.929,1.519c8.316,3.288 17.763,-0.821 21.06,-9.159l49.685,-125.675c0.925,-2.341 1.298,-4.899 1.076,-7.397c-0.424,-4.818 -2.945,-9.164 -6.917,-11.925l-162.148,-111.427c-3.589,-2.482 -5.745,-5.657 -6.047,-8.924c-0.256,-2.778 0.851,-5.499 3.203,-7.869c4.518,-3.138 10.203,-3.794 15.255,-1.797l207.873,82.181c8.697,3.438 12.976,13.312 9.538,22.009l-50.019,126.521c-6.35,16.71 -15.129,18.652 -30.132,16.455l0.054,-0.701c4.815,0.05 9.374,-2.022 12.505,-5.685c1.168,-1.361 2.098,-2.904 2.763,-4.586l50.019,-126.521c0.545,-1.38 0.896,-2.804 1.043,-4.233l0.005,-0.048l0.005,-0.014c0.76,-7.221 -3.427,-14.125 -10.194,-16.8l-192.511,-76.107l165.039,111.41c4.532,3.153 7.251,8.33 7.276,13.852c0.017,2.154 -0.381,4.277 -1.184,6.308l-49.443,125.065c-2.794,8.661 -7.711,14.872 -14.211,17.941c-5.927,2.798 -12.738,2.823 -19.697,0.072Z" style="fill:#d3623b;fill-rule:nonzero;"/></g><g><g><path d="M373.59,271.581c8.533,3.373 12.71,13.025 9.339,21.552l-50.019,126.521c-6.379,16.786 -15.402,18.338 -29.754,16.236c4.886,0.051 9.588,-2.079 12.777,-5.809c1.167,-1.359 2.128,-2.928 2.823,-4.686l50.019,-126.521c0.563,-1.424 0.917,-2.876 1.066,-4.326l0.005,-0.013c0.783,-7.236 -3.307,-14.405 -10.41,-17.213l-195.517,-77.296l167.718,113.218c4.544,3.161 7.096,8.273 7.121,13.561c0.016,2.069 -0.364,4.163 -1.16,6.177l-49.443,125.065c-5.687,17.624 -19.591,23.294 -33.451,17.814c-2.399,-0.948 -4.794,-2.229 -7.148,-3.841c0.964,0.63 1.968,1.146 2.993,1.551c8.285,3.275 18.07,-0.638 21.517,-9.357l49.685,-125.675c0.975,-2.466 1.322,-5.051 1.1,-7.558c-0.421,-4.785 -2.915,-9.297 -7.067,-12.182l-162.07,-111.372c-0.017,-0.014 -0.037,-0.022 -0.054,-0.036c-6.264,-4.335 -8.201,-10.849 -2.818,-16.274c4.209,-2.916 9.753,-3.743 14.876,-1.718l207.873,82.181m0.259,-0.656l-207.873,-82.181c-5.162,-2.041 -10.97,-1.37 -15.537,1.794l-0.053,0.037l-0.046,0.046c-2.428,2.446 -3.57,5.265 -3.304,8.15c0.31,3.364 2.51,6.625 6.196,9.183l0.018,0.015l0.055,0.034l0.009,0.006l162.07,111.372c3.883,2.698 6.349,6.95 6.764,11.663c0.217,2.444 -0.147,4.947 -1.053,7.237l-49.685,125.675c-3.225,8.157 -12.467,12.177 -20.602,8.961c-0.995,-0.393 -1.959,-0.893 -2.866,-1.486l-0.784,1.172c2.371,1.624 4.822,2.941 7.287,3.915c7.052,2.788 13.959,2.76 19.977,-0.081c6.586,-3.109 11.564,-9.385 14.397,-18.151l49.435,-125.044c0.82,-2.074 1.227,-4.241 1.21,-6.442c-0.027,-5.635 -2.802,-10.919 -7.424,-14.135l-162.368,-109.606l189.505,74.919c6.606,2.612 10.698,9.34 9.978,16.387l-0,0.001l-0.015,0.11c-0.144,1.397 -0.487,2.79 -1.02,4.139l-50.019,126.521c-0.65,1.645 -1.56,3.155 -2.702,4.485c-3.065,3.584 -7.524,5.612 -12.234,5.563l-0.11,1.403c6.253,0.915 12.793,1.417 18.263,-1.092c5.228,-2.399 9.122,-7.353 12.253,-15.592l50.016,-126.513c3.51,-8.879 -0.858,-18.957 -9.736,-22.467Z" style="fill:#66142e;fill-rule:nonzero;"/></g></g></g><g opacity="0.55"><g><path d="M272.066,464.216l-1.621,4.099c-1.768,4.473 -5.208,7.686 -9.258,9.3c-4.505,-0.651 -9.149,-2.525 -13.631,-5.594c8.757,5.722 20.636,1.993 24.51,-7.806Z" style="fill:#fff;fill-rule:nonzero;"/></g><g><path d="M272.066,464.216l-1.621,4.099c-1.768,4.473 -5.208,7.686 -9.258,9.3c-4.505,-0.651 -9.149,-2.525 -13.631,-5.594c8.757,5.722 20.636,1.993 24.51,-7.806Z" style="fill:none;fill-rule:nonzero;"/></g></g><g opacity="0.55"><g><path d="M288.155,458.049c-0.525,1.635 -1.125,3.173 -1.789,4.601c0.058,-0.167 0.117,-0.333 0.168,-0.502l1.621,-4.099Z" style="fill:#fff;fill-rule:nonzero;"/></g><g><path d="M288.155,458.049c-0.525,1.635 -1.125,3.173 -1.789,4.601c0.058,-0.167 0.117,-0.333 0.168,-0.502l1.621,-4.099Z" style="fill:none;fill-rule:nonzero;"/></g></g><g opacity="0.55"><g><path d="M315.934,430.081c1.167,-1.359 2.128,-2.928 2.823,-4.685l-1.621,4.099c-0.695,1.758 -1.656,3.327 -2.823,4.685c-0.778,0.913 -1.654,1.728 -2.595,2.44c-2.627,0.008 -5.473,-0.275 -8.561,-0.73c4.886,0.051 9.589,-2.079 12.777,-5.809Z" style="fill:#fff;fill-rule:nonzero;"/></g><g><path d="M315.934,430.081c1.167,-1.359 2.128,-2.928 2.823,-4.685l-1.621,4.099c-0.695,1.758 -1.656,3.327 -2.823,4.685c-0.778,0.913 -1.654,1.728 -2.595,2.44c-2.627,0.008 -5.473,-0.275 -8.561,-0.73c4.886,0.051 9.589,-2.079 12.777,-5.809Z" style="fill:none;fill-rule:nonzero;"/></g></g><g opacity="0.55"><path d="M382.929,293.132l-1.621,4.099c3.371,-8.526 -0.807,-18.178 -9.339,-21.552l-207.874,-82.181c-5.122,-2.025 -10.666,-1.199 -14.876,1.718c-0.567,0.572 -1.048,1.155 -1.456,1.745c0.241,-1.99 1.226,-3.982 3.076,-5.844c4.209,-2.916 9.753,-3.743 14.876,-1.718l207.874,82.181c8.533,3.373 12.71,13.025 9.339,21.552Z" style="fill:#fff;fill-rule:nonzero;"/></g><g opacity="0.3"><path d="M288.155,458.049c-6.672,20.674 -24.647,24.898 -40.599,13.973c8.757,5.722 20.636,1.993 24.51,-7.806l49.685,-125.675c0.975,-2.466 1.322,-5.051 1.1,-7.558c2.488,-10.475 11.538,-11.728 15.908,-4.176c0.016,2.069 -0.364,4.163 -1.16,6.177l-49.443,125.065Z" style="fill:#66142e;fill-rule:nonzero;"/></g><g><path d="M253.974,477.86c-2.559,-1.012 -5.11,-2.378 -7.613,-4.092c-0.957,-0.655 -1.208,-1.958 -0.563,-2.922c0.645,-0.964 1.946,-1.229 2.915,-0.594c3.651,2.387 8.133,2.993 12.301,1.667c4.166,-1.324 7.477,-4.415 9.084,-8.48l49.685,-125.675c2.485,-6.285 0.344,-13.369 -5.207,-17.225l-162.061,-111.366c-0.018,-0.012 -0.039,-0.026 -0.059,-0.04l-0.001,0.001c-4.05,-2.802 -6.474,-6.436 -6.824,-10.231c-0.306,-3.314 0.976,-6.521 3.707,-9.273c0.091,-0.092 0.191,-0.176 0.297,-0.249c4.954,-3.433 11.257,-4.16 16.859,-1.946l207.873,82.181c9.601,3.796 14.325,14.695 10.529,24.297l-50.019,126.521c-6.694,17.618 -16.814,19.78 -32.028,17.551c-1.101,-0.158 -1.889,-1.148 -1.803,-2.258c0.087,-1.11 1.018,-1.963 2.131,-1.951c4.293,0.044 8.355,-1.803 11.147,-5.068c1.043,-1.215 1.871,-2.589 2.464,-4.089l50.019,-126.521c2.938,-7.432 -0.718,-15.869 -8.149,-18.807l-177.479,-70.165l151.642,102.366c7.191,4.999 9.955,14.15 6.745,22.27l-49.419,125.003c-3.28,10.111 -9.514,17.191 -17.561,19.938c-5.837,1.993 -12.249,1.673 -18.612,-0.843Zm-99.063,-272.176l162.07,111.372c7.181,4.99 9.947,14.142 6.737,22.262l-49.685,125.675c-1.981,5.011 -5.966,8.876 -11.002,10.707c2.832,0.214 5.587,-0.115 8.187,-1.003c6.867,-2.345 12.028,-8.327 14.923,-17.299c0.014,-0.043 0.029,-0.086 0.046,-0.128l49.443,-125.065c2.485,-6.285 0.346,-13.367 -5.201,-17.224l-167.694,-113.202c-0.895,-0.604 -1.191,-1.785 -0.688,-2.74c0.504,-0.955 1.646,-1.378 2.65,-0.981l195.517,77.296c9.601,3.796 14.325,14.695 10.529,24.298l-50.019,126.521c-0.766,1.938 -1.838,3.717 -3.185,5.286c-0.939,1.098 -1.989,2.072 -3.127,2.91c7.459,-0.742 12.456,-4.771 16.52,-15.467l50.029,-126.548c2.938,-7.432 -0.718,-15.868 -8.15,-18.806l-207.873,-82.181c-4.223,-1.67 -8.967,-1.152 -12.731,1.379c-1.753,1.821 -2.547,3.76 -2.362,5.765c0.233,2.525 2.013,5.059 5.013,7.136c0.018,0.012 0.036,0.024 0.054,0.036Z" style="fill:#66142e;fill-rule:nonzero;"/></g><g><path d="M350.803,293.428c-0.397,-0.157 -0.8,-0.321 -1.208,-0.492l-124.857,-49.36c-1.087,-0.43 -1.619,-1.659 -1.19,-2.745c0.43,-1.087 1.659,-1.619 2.745,-1.19l124.895,49.376c10.093,4.209 13.47,2.811 14.453,2.011c1.225,-0.998 1.138,-2.975 0.849,-4.459c-0.223,-1.147 0.526,-2.258 1.673,-2.481c1.147,-0.223 2.258,0.525 2.481,1.673c0.923,4.744 -0.758,7.266 -2.33,8.547c-3.316,2.701 -9.204,2.404 -17.511,-0.88Z" style="fill:#66142e;fill-rule:nonzero;"/></g><g opacity="0.3"><path d="M382.263,294.818l-49.353,124.836c-6.378,16.786 -15.402,18.338 -29.754,16.236c4.886,0.051 9.589,-2.079 12.777,-5.809c1.167,-1.359 2.128,-2.928 2.823,-4.685l50.019,-126.521c0.563,-1.423 0.917,-2.876 1.066,-4.326l0.005,-0.013c4.794,-10.496 14.826,-14.963 12.416,0.283Z" style="fill:#66142e;fill-rule:nonzero;"/></g><g opacity="0.3"><path d="M312.547,346.475l-45.728,115.667c-2.225,5.627 -8.593,8.403 -14.194,6.189c-0.689,-0.272 -1.355,-0.619 -1.98,-1.033l-0.147,-0.088l-153.493,-106.73c-0.667,-0.461 -1.277,-0.99 -1.828,-1.572c71.546,31.129 155.561,30.217 217.37,-12.432Z" style="fill:#66142e;fill-rule:nonzero;"/></g></g><g><g><g><path d="M386.48,269.594l-73.154,-28.323l-0.105,-0.073l-14.981,-10.111l-8.113,-5.478l-9.981,-6.736l1.45,-8.597l1.856,-11.015l8.429,-50.104c0.172,-1.032 1.148,-1.731 2.18,-1.559l56.041,9.433l8.517,1.434l23.68,3.987l10.911,1.838l0.007,0.003l8.806,1.478c1.032,0.172 1.731,1.148 1.559,2.18l-0.542,3.22l-0.875,5.194l-11.016,65.474l-1.856,11.015l-2.815,16.741Z" style="fill:#1ebc61;fill-rule:nonzero;"/></g><g><path d="M313.154,241.595l-0.141,-0.098l-33.266,-22.454l3.345,-19.843l8.429,-50.104c0.206,-1.23 1.372,-2.064 2.601,-1.859l99.224,16.712l8.739,1.46c1.229,0.208 2.064,1.373 1.858,2.601l-17.178,102.086l-0.418,-0.162l-73.194,-28.34Zm-32.607,-22.894l32.952,22.245l72.695,28.145l17.029,-101.201c0.067,-0.402 -0.026,-0.807 -0.264,-1.14c-0.238,-0.333 -0.59,-0.555 -0.995,-0.619l-107.964,-18.172c-0.83,-0.139 -1.62,0.426 -1.759,1.258l-11.695,69.484Z" style="fill:#66142e;fill-rule:nonzero;"/></g></g><g opacity="0.55"><path d="M403.274,169.808l-6.596,-1.107l-0.007,-0.003l-34.585,-5.822l-64.558,-10.867c-1.032,-0.172 -2.014,0.524 -2.187,1.556l-8.423,50.107l-1.856,11.015l-1.144,6.73l-3.772,-2.544l1.45,-8.597l1.856,-11.015l8.429,-50.104c0.172,-1.032 1.148,-1.731 2.18,-1.559l64.558,10.867l34.592,5.825l0.007,0.003l8.806,1.478c1.032,0.172 1.731,1.148 1.559,2.18l-0.31,1.858Z" style="fill:#fff;fill-rule:nonzero;"/></g><g><g><path d="M376.054,265.472l-62.833,-24.275l-23.093,-15.589l1.887,-11.214l1.856,-11.015l5.658,-33.613c5.437,0.916 10.589,-2.753 11.507,-8.197l40.619,6.84l29.76,5.007c-0.916,5.437 2.753,10.589 8.197,11.507l-8.887,52.792l-1.856,11.015l-2.815,16.741Z" style="fill:#4eec91;fill-rule:nonzero;"/></g><g><path d="M313.051,241.523l-0.034,-0.023l-23.288,-15.721l3.781,-22.461l5.719,-33.973l0.361,0.06c5.23,0.881 10.203,-2.662 11.087,-7.898l0.061,-0.36l0.36,0.06l70.739,11.909l-0.06,0.36c-0.881,5.231 2.665,10.204 7.897,11.087l0.36,0.061l-0.06,0.36l-13.632,80.989l-63.289,-24.451Zm-22.524,-16.086l22.864,15.435l62.377,24.098l13.424,-79.752c-5.317,-1.081 -8.905,-6.127 -8.192,-11.5l-69.671,-11.729c-1.088,5.316 -6.127,8.905 -11.5,8.193l-9.302,55.255Z" style="fill:#66142e;fill-rule:nonzero;"/></g></g><g opacity="0.3"><path d="M386.48,269.594l-73.154,-28.323l-0.105,-0.073l-14.981,-10.111l51.862,-74.056l8.517,1.434l23.68,3.987l19.866,13.913l-11.016,65.474l-1.856,11.015l-2.815,16.741Z" style="fill:#66142e;fill-rule:nonzero;"/></g><g><path d="M385.671,271.633c-0.942,-0.372 -1.528,-1.363 -1.354,-2.402l17.054,-101.347l-8.515,-1.43c-0.028,-0.004 -0.055,-0.01 -0.083,-0.015l-98.779,-16.629l-12.082,71.8c-0.201,1.194 -1.332,1.999 -2.526,1.799c-1.194,-0.202 -1.999,-1.332 -1.798,-2.526l12.131,-72.09c0.371,-2.221 2.481,-3.729 4.703,-3.357l99.153,16.692c0.027,0.005 0.053,0.01 0.08,0.015l8.732,1.465c1.074,0.18 2.017,0.767 2.651,1.654c0.636,0.889 0.887,1.972 0.707,3.05l-17.104,101.646c-0.201,1.194 -1.331,1.999 -2.526,1.799c-0.155,-0.026 -0.304,-0.068 -0.445,-0.124Z" style="fill:#66142e;fill-rule:nonzero;"/></g><g><path d="M375.381,267.172c-0.785,-0.31 -1.274,-1.137 -1.128,-2.002l13.278,-78.885c-4.856,-1.613 -8.143,-6.231 -8.082,-11.344l-67.054,-11.289c-1.617,4.857 -6.231,8.143 -11.345,8.082l-9.516,56.552c-0.167,0.995 -1.11,1.666 -2.105,1.499c-0.994,-0.17 -1.666,-1.109 -1.499,-2.104l9.797,-58.216c0.08,-0.478 0.347,-0.904 0.742,-1.185c0.395,-0.28 0.885,-0.394 1.363,-0.313c4.436,0.747 8.654,-2.258 9.403,-6.699c0.168,-0.995 1.11,-1.665 2.105,-1.498l70.379,11.848c0.476,0.082 0.904,0.347 1.185,0.742c0.281,0.394 0.394,0.885 0.313,1.363c-0.747,4.435 2.256,8.654 6.699,9.403c0.996,0.168 1.665,1.111 1.498,2.105l-13.557,80.548c-0.167,0.994 -1.11,1.666 -2.105,1.499c-0.129,-0.022 -0.254,-0.057 -0.371,-0.103Z" style="fill:#66142e;fill-rule:nonzero;"/></g></g><g><g><path d="M402.836,257.544l-39.506,28.982l-26.479,19.428l-88.821,-75.323l87.803,-64.421c0.841,-0.619 2.028,-0.436 2.652,0.409l64.76,88.273c0.619,0.841 0.436,2.028 -0.409,2.652Z" style="fill:#1ebc61;fill-rule:nonzero;"/></g><g opacity="0.55"><path d="M402.836,257.544l-1.848,1.355l-63.364,-86.371c-0.624,-0.846 -1.811,-1.028 -2.652,-0.409l-83.603,61.343l-3.339,-2.831l87.803,-64.421c0.841,-0.619 2.028,-0.436 2.652,0.409l64.76,88.273c0.619,0.841 0.436,2.028 -0.409,2.652Z" style="fill:#fff;fill-rule:nonzero;"/></g><g><path d="M335.433,307.625l-88.821,-75.323c-0.512,-0.434 -0.797,-1.079 -0.773,-1.749c0.024,-0.671 0.353,-1.293 0.894,-1.691l87.804,-64.421c1.809,-1.331 4.372,-0.941 5.713,0.875l64.764,88.278c1.331,1.809 0.939,4.373 -0.876,5.713c-0.002,0.001 -0.004,0.003 -0.005,0.004l-65.985,48.409c-0.818,0.6 -1.941,0.56 -2.715,-0.096Zm-83.867,-76.871l85.383,72.407l64.353,-47.212l-64.411,-87.797l-85.325,62.602Zm151.269,26.789l0.005,0.005l-0.005,-0.005Z" style="fill:#66142e;fill-rule:nonzero;"/></g><g><path d="M380.989,259.973l-52.738,38.687l-71.627,-60.742l70.327,-51.597c3.269,4.449 9.518,5.408 13.963,2.144l42.219,57.545c-4.445,3.264 -5.408,9.518 -2.144,13.963Z" style="fill:#4eec91;fill-rule:nonzero;"/></g><g><path d="M320.99,248.241c-8.947,-11.094 -25.194,-12.834 -36.288,-3.886c-3.639,2.935 -6.264,6.657 -7.843,10.723l37.211,31.556c1.045,-0.622 2.06,-1.32 3.034,-2.105c11.094,-8.947 12.834,-25.194 3.887,-36.288Z" style="fill:#1ebc61;fill-rule:nonzero;"/></g><g><path d="M290.326,266.157c-2.146,-2.661 -2.505,-6.265 -0.086,-9.877l-2.606,-3.231l4.116,-3.32l2.198,2.726c2.325,-1.784 4.997,-2.959 6.628,-3.241l2.209,4.722c-1.811,0.382 -4.312,1.313 -6.347,2.954c-2.193,1.768 -2.614,3.608 -1.504,4.985c1.058,1.312 2.665,1.255 5.933,0.119c4.488,-1.607 8.339,-1.508 10.814,1.561c2.34,2.902 2.28,6.83 -0.439,10.346l2.613,3.24l-4.116,3.32l-2.43,-3.013c-1.779,1.19 -3.388,1.822 -4.726,2.175l-2.045,-4.708c1.173,-0.273 3.158,-0.894 5.221,-2.558c2.067,-1.667 2.313,-3.411 1.427,-4.51c-1.084,-1.344 -2.754,-0.977 -6.309,0.184c-4.837,1.629 -8.156,1.1 -10.552,-1.871Z" style="fill:#4eec91;fill-rule:nonzero;"/></g><g><path d="M347.372,225.193c3.093,2.623 3.475,7.264 0.852,10.357c-2.623,3.093 -7.264,3.475 -10.357,0.852c-3.093,-2.623 -3.475,-7.264 -0.852,-10.357c2.623,-3.093 7.264,-3.475 10.357,-0.852Z" style="fill:#1ebc61;"/></g><g opacity="0.3"><path d="M368.557,290.531l-26.479,19.428l-36.44,-30.903c1.163,-4.581 3.358,-8.976 6.624,-12.828c11.448,-13.499 31.672,-15.168 45.171,-3.72c8.45,7.166 12.262,17.777 11.124,28.022Z" style="fill:#66142e;fill-rule:nonzero;"/></g><g><path d="M327.069,300.054l-71.627,-60.742c-0.426,-0.362 -0.664,-0.899 -0.644,-1.458c0.02,-0.559 0.294,-1.078 0.745,-1.409l70.327,-51.598c0.812,-0.596 1.957,-0.423 2.553,0.392c2.667,3.625 7.785,4.415 11.41,1.754c0.39,-0.287 0.879,-0.407 1.358,-0.333c0.479,0.074 0.91,0.335 1.196,0.725l42.219,57.544c0.597,0.813 0.421,1.957 -0.392,2.554c-3.629,2.665 -4.415,7.783 -1.753,11.409c0.287,0.391 0.407,0.879 0.333,1.359c-0.073,0.479 -0.334,0.909 -0.725,1.196l-52.738,38.688c-0.682,0.5 -1.618,0.467 -2.262,-0.08Zm-67.498,-62.031l68.762,58.312l50.216,-36.837c-2.355,-4.541 -1.496,-10.138 2.115,-13.766l-40.225,-54.825c-4.539,2.354 -10.141,1.495 -13.765,-2.115l-67.102,49.232Z" style="fill:#66142e;fill-rule:nonzero;"/></g></g><g><path d="M285.02,191.251c12.194,2.962 78.374,33.596 73.332,67.591c-3.914,22.095 -27.32,18.105 -36.516,14.607c-9.083,-3.456 -51.51,-29.585 -51.51,-29.585l14.695,-52.612Z" style="fill:#f9c9ca;fill-rule:nonzero;"/><path d="M358.353,258.839c-3.917,22.099 -27.32,18.108 -36.521,14.609c-2.307,-0.878 -6.77,-3.223 -12.145,-6.229c-15.764,-8.822 -39.363,-23.356 -39.363,-23.356l9.721,-34.792l4.975,-17.82c4.267,1.035 15.14,5.462 27.264,12.225c15.606,8.723 33.284,21.326 41.576,35.605c3.671,6.32 5.498,12.973 4.493,19.758Z" style="fill:#f9c9ca;fill-rule:nonzero;"/><path d="M358.353,258.839c-3.917,22.099 -27.32,18.108 -36.521,14.609c-2.307,-0.878 -6.77,-3.223 -12.147,-6.229l42.305,-10.352c2.216,-2.2 4.204,-6.381 1.869,-17.785c3.671,6.32 5.498,12.973 4.493,19.758Z" style="fill:#f9b2b2;fill-rule:nonzero;"/><path d="M312.284,203.476c-8.446,2.534 -19.738,4.442 -32.239,5.595l4.975,-17.82c4.267,1.035 15.14,5.462 27.264,12.225Z" style="fill:#f9b2b2;fill-rule:nonzero;"/><path d="M301.824,206.025c-31.422,6.246 -83.592,6.245 -110.078,-3.62l-8.174,-7.302c-0.064,-0.083 -0.127,-0.171 -0.185,-0.255c24.269,-43.208 77.025,-59.012 118.437,11.177Z" style="fill:#f9b2b2;fill-rule:nonzero;"/><path d="M334.088,278.231c-4.761,-0.303 -9.358,-1.419 -13.006,-2.807c-9.164,-3.487 -50.127,-28.689 -51.865,-29.761l2.217,-3.601c0.422,0.261 42.359,26.063 51.153,29.409c5.65,2.149 17.351,4.572 25.384,0.016c4.42,-2.508 7.213,-6.886 8.298,-13.013c2.515,-16.964 -14.565,-32.935 -29.337,-43.335c-16.648,-11.722 -36.164,-20.314 -42.41,-21.833l0.997,-4.109c6.144,1.492 25.936,9.872 43.848,22.482c15.746,11.086 33.918,28.32 31.076,47.472c-1.325,7.486 -4.816,12.855 -10.384,16.014c-4.719,2.675 -10.453,3.417 -15.97,3.065Z" style="fill:#650000;fill-rule:nonzero;"/><path d="M342.48,295.564c-2.553,0.595 -5.138,1.172 -7.759,1.736c-76.338,-26.961 -124.393,-64.467 -151.335,-102.452c24.668,-43.914 78.764,-59.521 120.465,14.697c14.467,28.942 33.464,47.023 38.629,86.019Z" style="fill:#f9c9ca;fill-rule:nonzero;"/><path d="M342.48,295.564c-2.553,0.595 -5.138,1.172 -7.759,1.736c-32.756,-11.568 -60.303,-25.082 -83.21,-39.74c-30.483,-19.496 -52.741,-41.027 -68.125,-62.712c24.668,-43.914 78.764,-59.521 120.465,14.697c3.67,7.347 7.636,13.999 11.595,20.464c11.625,19.009 23.182,36.458 27.034,65.555Z" style="fill:#f9c9ca;fill-rule:nonzero;"/><path d="M342.48,295.564c-2.553,0.595 -5.138,1.172 -7.759,1.736c-32.756,-11.568 -60.303,-25.082 -83.21,-39.74c12.912,5.6 27.383,9.933 35.098,5.789c10.328,-5.545 -3.309,-24.207 28.836,-33.34c11.625,19.009 23.182,36.458 27.034,65.555Z" style="fill:#f9b2b2;fill-rule:nonzero;"/><path d="M301.824,206.025c-31.422,6.246 -83.592,6.245 -110.078,-3.62l-8.174,-7.302c-0.064,-0.083 -0.127,-0.171 -0.185,-0.255c24.269,-43.208 77.025,-59.012 118.437,11.177Z" style="fill:#f9b2b2;fill-rule:nonzero;"/><path d="M229.644,190.241c-10.547,3.36 -25.738,12.531 -33.421,20.999l-18.214,-24.412c0,0 33.064,-27.276 51.635,3.413Z" style="fill:#512717;fill-rule:nonzero;"/><path d="M303.388,10.967c-4.578,6.114 -6.938,15.283 -6.938,15.283l22.591,27.46l17.899,-27.185l-13.545,-20.735l-20.007,5.177Z" style="fill:#f9c9ca;fill-rule:nonzero;"/><path d="M296.451,26.249l22.588,27.458l0.587,-0.889l17.315,-26.296l-9.492,-14.531l-4.055,-6.204l-20.002,5.181c-4.576,6.113 -6.94,15.28 -6.94,15.28Z" style="fill:#f9c9ca;fill-rule:nonzero;"/><path d="M302.603,32.128l17.023,20.69l17.315,-26.296l-9.492,-14.531l-17.993,2.809c-6.104,6.505 -6.853,17.327 -6.853,17.327Z" style="fill:#f9b2b2;fill-rule:nonzero;"/><path d="M318.906,55.82c-0.58,-0.037 -1.123,-0.312 -1.497,-0.767l-22.591,-27.458c-0.43,-0.521 -0.584,-1.216 -0.415,-1.871c0.1,-0.391 2.519,-9.648 7.294,-16.023l3.384,2.535c-3.413,4.559 -5.557,11.048 -6.295,13.527l20.065,24.39l15.56,-23.631l-12.785,-19.574l3.54,-2.313l13.544,20.733c0.461,0.705 0.459,1.617 -0.005,2.319l-17.9,27.186c-0.369,0.56 -0.983,0.913 -1.653,0.948c-0.083,0.004 -0.165,0.004 -0.248,-0.001Z" style="fill:#512717;fill-rule:nonzero;"/><path d="M213.398,228.516c3.198,-1.144 17.057,-3.893 30.367,6.148c7.742,6.015 10.202,13.429 9.492,18.325c-0.572,3.943 -4.786,9.236 -9.913,8.904c-6.979,-0.44 -7.068,-8.313 -7.066,-9.481c-1.507,0.874 -9.372,3.005 -13.666,-1.66c-4.436,-5.358 1.19,-12.085 -3.052,-16.783l-6.161,-5.453Z" style="fill:#f9c9ca;fill-rule:nonzero;"/><path d="M253.035,254.002c-1.061,3.773 -4.993,8.194 -9.693,7.889c-6.979,-0.439 -7.067,-8.31 -7.066,-9.481c-1.507,0.878 -9.371,3.01 -13.667,-1.659c-4.436,-5.357 1.189,-12.086 -3.053,-16.78l-6.156,-5.456c0.114,-0.04 0.238,-0.08 0.373,-0.125c1.351,0.33 2.76,0.738 4.117,1.227c11.255,4.09 4.826,9.974 8.248,15.616c4.295,4.671 12.16,2.539 13.666,1.66c0,1.17 0.087,9.042 7.067,9.487c2.326,0.148 4.467,-0.865 6.163,-2.378Z" style="fill:#f9b2b2;fill-rule:nonzero;"/><path d="M243.473,259.784l0.007,0c3.825,0.244 7.244,-4.071 7.683,-7.099c0.577,-3.979 -1.354,-10.649 -8.696,-16.353c-9.173,-6.919 -18.896,-7.44 -24.587,-6.674l3.246,2.892c2.73,3.022 2.341,6.554 2,9.671c-0.301,2.746 -0.56,5.12 1.079,7.139c3.364,3.589 9.921,1.855 11.009,1.222l3.183,-1.849l-0.006,3.682c-0.004,2.117 0.484,7.076 5.082,7.368Zm-0.259,4.221l-0.013,-0.001c-5.49,-0.35 -8.068,-4.362 -8.807,-8.738c-3.675,0.846 -9.557,1.027 -13.339,-3.082l-0.072,-0.084c-2.819,-3.405 -2.399,-7.25 -2.06,-10.339c0.317,-2.902 0.447,-4.776 -0.864,-6.295l-8.738,-7.736l3.364,-1.205c0.162,-0.058 16.325,-5.64 32.353,6.45c8.802,6.837 11.051,15.215 10.311,20.317c-0.691,4.753 -5.64,11.125 -12.135,10.713Z" style="fill:#650000;fill-rule:nonzero;"/><path d="M303.854,209.542c17.894,29.147 37.128,49.71 40.72,85.744l-4.191,0.555c-2.535,-15.446 -7.337,-30.259 -14.604,-44.146c-7.068,-13.877 -16.144,-27.642 -21.924,-42.153Z" style="fill:#650000;fill-rule:nonzero;"/><path d="M224.02,201.947c-42.735,-5.154 -53.264,-26.349 -57.901,-37.586c-8.472,-19.711 -11.646,-38.808 -10.561,-55.834c3.702,-58.123 53.821,-102.24 111.943,-98.538c28.722,1.829 48.585,11.843 67.841,27.72l0.978,0.812c20.141,17.886 27.122,46.235 28.51,69.037c15.617,48.972 -4.408,84.572 -80.671,92.835l-60.138,1.555Z" style="fill:#f9c9ca;fill-rule:nonzero;"/><path d="M362.03,164.846c-11.51,18.447 -36.36,31.05 -77.872,35.546l-60.135,1.558c-20.322,-2.455 -33.363,-8.534 -41.949,-15.443c-9.468,-7.622 -13.521,-16.249 -15.953,-22.146c-8.476,-19.709 -11.65,-38.811 -10.566,-55.835c3.702,-58.12 53.824,-102.241 111.945,-98.539c28.72,1.829 48.587,11.846 67.841,27.722l0.976,0.809c20.143,17.89 27.121,46.237 28.514,69.04c7.117,22.314 6.831,41.852 -2.801,57.289Z" style="fill:#f9c9ca;fill-rule:nonzero;"/><path d="M362.03,164.846c-11.51,18.447 -36.36,31.05 -77.872,35.546l-60.135,1.558c-18.661,-2.254 -31.179,-7.563 -39.751,-13.767c-0.765,-0.551 -1.497,-1.111 -2.197,-1.675c-9.468,-7.622 -13.521,-16.249 -15.953,-22.146c-2.454,-5.713 -4.467,-11.37 -6.056,-16.943c-3.903,-13.661 -5.28,-26.8 -4.51,-38.892c3.702,-58.12 53.824,-102.241 111.945,-98.539c28.72,1.829 48.587,11.846 67.841,27.722l0.976,0.809c20.143,17.89 27.121,46.237 28.514,69.04c7.117,22.314 6.831,41.852 -2.801,57.289Z" style="fill:#f9c9ca;fill-rule:nonzero;"/><path d="M362.03,164.846c-11.51,18.447 -36.36,31.05 -77.872,35.546l-60.135,1.558c-20.322,-2.455 -33.363,-8.534 -41.949,-15.443c59.448,19.613 150.083,7.916 179.956,-21.661Z" style="fill:#f9b2b2;fill-rule:nonzero;"/><path d="M343.624,138.215c0.735,11.854 8.133,21.716 18.325,26.155c9.904,-15.575 9.811,-35.068 2.878,-56.813l-0.024,-0.352c-13.02,4.162 -22.063,16.743 -21.179,31.01Z" style="fill:#fe95a3;fill-rule:nonzero;"/><path d="M313.189,274.081c1.853,-5.391 8.032,-6.722 11.727,-3.274c3.301,3.08 3.799,8.704 1.636,11.804c-2.858,4.099 -8.163,4.233 -11.137,1.569c0,0 -1.231,-1.184 -2.078,-4.342c-0.848,-3.163 -0.147,-5.757 -0.147,-5.757Z" style="fill:#fac9ca;fill-rule:nonzero;"/><path d="M321.184,283.652c4.127,-0.973 4.596,-5.181 4.329,-6.938c-0.24,-1.577 -0.225,2.461 -4.954,3.304c-4.731,0.843 -7.012,-2.786 -6.404,-0.52c0.574,2.145 2.575,5.204 7.029,4.154Z" style="fill:#f9b2b2;fill-rule:nonzero;"/><path d="M313.189,274.081c0.245,-3.782 3.956,-6.931 7.881,-6.699c4.229,0.073 7.691,3.745 8.554,7.684c1.717,6.304 -2.817,13.037 -9.671,11.98c-1.891,-0.325 -3.61,-1.384 -4.538,-2.866c3.899,1.765 7.634,0.483 9.489,-2.551c1.564,-2.761 0.899,-6.694 -1.041,-9.128c-2.969,-3.668 -8.425,-2.258 -10.674,1.58Z" style="fill:#650000;fill-rule:nonzero;"/><path d="M321.456,281.312c-0.258,-0.074 -0.286,-1.369 -1.065,-3.184c-1.984,-0.201 -3.223,0.179 -3.365,-0.047c-0.142,-0.226 0.911,-1.224 2.867,-1.21c-0.591,-1.858 0.032,-3.158 0.291,-3.084c0.256,0.075 0.284,1.363 1.065,3.185c1.984,0.201 3.221,-0.179 3.363,0.047c0.142,0.226 -0.905,1.227 -2.867,1.21c0.593,1.853 -0.034,3.158 -0.29,3.083Z" style="fill:#512717;fill-rule:nonzero;"/><path d="M346.238,236.521c-10.962,-6.811 -22.716,-8.259 -33.325,-5.157c-6.542,2.129 -18.12,10.92 -17.396,20.323c0.532,4.21 4.409,7.023 10.678,6.821c0,0 -0.615,7.514 5.12,9.877c6.432,2.65 13.533,-1.268 18.981,-3.464c5.15,2.511 9.815,-0.241 9.815,-0.241c0,0 9.079,2.3 12.084,-8.501c3.006,-10.799 -5.957,-19.658 -5.957,-19.658Z" style="fill:#f9c9ca;fill-rule:nonzero;"/><path d="M344.921,235.731c-6.12,-3.545 -12.463,-5.446 -18.691,-5.843c-2.99,-0.19 -5.953,-0.034 -8.855,0.453c-0.001,-0.001 -0.001,-0 -0.001,-0.001c2.901,-0.487 5.866,-0.644 8.855,-0.453c6.231,0.397 12.571,2.298 18.692,5.845Z" style="fill:#fdefef;fill-rule:nonzero;"/><path d="M296.39,254.332c-0.458,-0.797 -0.756,-1.685 -0.874,-2.646c-0.726,-9.401 10.856,-18.193 17.397,-20.325c0.49,-0.143 0.983,-0.276 1.478,-0.4c0.001,0 0.001,0.001 0.001,0.001c-0.495,0.125 -0.988,0.258 -1.479,0.401c-6.542,2.129 -18.12,10.92 -17.396,20.323c0.121,0.959 0.417,1.846 0.873,2.642c-0,0.001 -0,0.001 -0,0.003Z" style="fill:#fde8e8;fill-rule:nonzero;"/><path d="M314.392,230.963c0,0 0,-0.001 -0.001,-0.001c0.986,-0.246 1.981,-0.455 2.983,-0.623c-0,0.001 0,0 0.001,0.001c-1.003,0.169 -1.997,0.376 -2.983,0.623Z" style="fill:#d0b2b2;fill-rule:nonzero;"/><path d="M350.316,242.246c-1.81,-3.439 -3.96,-5.608 -4.073,-5.721c0.16,0.132 2.973,2.493 4.073,5.721Z" style="fill:#fdefef;fill-rule:nonzero;"/><path d="M296.39,254.329c-0.457,-0.796 -0.752,-1.682 -0.873,-2.642c-0.725,-9.404 10.854,-18.194 17.396,-20.323c0.491,-0.143 0.984,-0.276 1.479,-0.401c0.986,-0.246 1.98,-0.453 2.983,-0.623c2.902,-0.487 5.865,-0.644 8.855,-0.453c6.228,0.397 12.571,2.298 18.691,5.843c0.439,0.254 0.877,0.518 1.315,0.789c0,0 0.001,0.001 0.006,0.006c0.113,0.113 2.263,2.282 4.073,5.721c0.001,0.003 0.002,0.006 0.002,0.008c-4.187,-5.162 -13.774,-8.103 -22.866,-8.682c-5.026,-0.32 -9.9,0.082 -13.629,1.227c-6.393,1.963 -17.475,10.428 -17.432,19.53Z" style="fill:#fdefef;fill-rule:nonzero;"/><path d="M351.991,256.866c-3.192,10.014 -11.881,7.814 -11.881,7.814c0,0 -4.662,2.754 -9.815,0.244c-5.448,2.195 -12.546,6.113 -18.977,3.463c-5.735,-2.362 -5.124,-9.877 -5.124,-9.877c-6.268,0.199 -10.147,-2.611 -10.678,-6.824c-0.305,-3.956 1.572,-7.809 4.334,-11.097c-0.672,1.748 -0.999,3.565 -0.857,5.407c0.531,4.209 4.409,7.024 10.678,6.82c0,0 -0.717,7.773 5.119,9.876c6.083,2.198 13.7,-1.622 16.954,-3.477c4.521,4.357 11.842,-0.231 11.842,-0.231c0,0 5.585,0.744 8.404,-2.118Z" style="fill:#f9b2b2;fill-rule:nonzero;"/><path d="M346.238,236.521c-8.9,-3.679 -17.986,-5.606 -27.329,-4.161c-2.893,0.489 -5.781,1.175 -8.349,2.655c-5.671,3.274 -12.497,9.168 -12.594,16.09c0.118,3.983 4.695,5.292 8.161,5.29l2.175,2.286c0.274,4.554 2.14,7.826 7.032,8.045c5.096,0.327 10.299,-2.502 15.224,-3.94c0.784,0.489 1.611,0.974 2.492,1.306c2.228,0.837 4.661,0.935 7.061,0.588c-1.257,1.374 -3.005,2.215 -4.839,2.592c-1.888,0.383 -3.972,0.173 -5.839,-0.582l1.599,0.056c-1.138,0.585 -2.318,1.166 -3.532,1.743c-3.865,1.841 -8.027,3.484 -12.454,3.28c-7.574,-0.268 -11.797,-6.164 -10.958,-13.433l2.175,2.286c-5.968,0.605 -12.909,-2.456 -13.23,-9.289c-0.193,-9.271 7.803,-16.523 15.26,-20.566c2.297,-1.269 4.908,-2.019 7.5,-2.435c10.656,-2.065 22.444,1.036 30.445,8.189Z" style="fill:#650000;fill-rule:nonzero;"/><path d="M238.916,236.583c0.983,1.111 1.411,2.606 1.825,4.011c1.264,4.622 0.466,9.995 -3.148,13.473l-2.629,-3.312c2.15,-1.259 3.613,-3.428 4.234,-5.914c0.622,-2.616 0.848,-5.722 -0.281,-8.258Z" style="fill:#650000;fill-rule:nonzero;"/><path d="M317.085,244.188c-3.854,4.476 -7.235,9.503 -8.944,15.147l-3.892,-1.652c3.143,-5.452 7.813,-9.863 12.835,-13.495Z" style="fill:#650000;fill-rule:nonzero;"/><path d="M261.971,187.246c-16.32,-4.007 -28.541,-17.284 -20.851,-31.638c9.679,-14.988 22.805,-2.113 48.674,-6.005c15.373,-2.312 20.186,-8.456 27.316,-3.689c6.509,4.353 7.99,18.455 -1.467,28.619c-11.002,11.825 -33.571,17.648 -53.672,12.712Z" style="fill:#5e3519;fill-rule:nonzero;"/><path d="M260.808,186.945c0.386,0.104 0.771,0.207 1.165,0.302c14.618,3.588 30.534,1.495 42.368,-4.472c4.436,-2.234 8.303,-5.01 11.305,-8.241c9.448,-10.157 7.966,-24.264 1.462,-28.613c-3.253,-2.18 -6.027,-2.085 -9.546,-1.118c-4.186,1.156 -9.416,3.55 -17.774,4.803c-13.25,1.998 -23.157,-0.413 -30.973,-1.212c-7.441,-0.775 -12.978,-0.09 -17.694,7.222c-7.514,14.006 3.947,26.986 19.685,31.331Z" style="fill:#650000;fill-rule:nonzero;"/><path d="M292.734,159.22c12.477,-2.799 14.851,-8.863 14.83,-14.421c-4.186,1.158 -9.416,3.55 -17.774,4.804c-13.25,1.996 -23.157,-0.413 -30.973,-1.214c0.367,6.328 2.409,9.336 5.689,10.595c2.025,0.778 4.42,1.146 5.5,1.297c5.982,1.254 13.918,0.909 22.728,-1.062Z" style="fill:#fff;fill-rule:nonzero;"/><path d="M260.809,186.942c0.386,0.105 0.771,0.208 1.165,0.302c14.618,3.588 30.534,1.495 42.368,-4.471c-5.337,-6.654 -15.761,-9.735 -24.862,-5.161c-7.556,-3.441 -14.936,0.54 -17.999,7.883c-0.253,0.502 -0.467,0.985 -0.672,1.447Z" style="fill:#f28475;fill-rule:nonzero;"/><path d="M281.048,171.089c0,0 -7.372,4.99 -5.077,5.438c2.716,0.529 7.515,3.034 8.588,5.86c0,0 0.434,-6.439 -3.512,-11.297Z" style="fill:#650000;fill-rule:nonzero;"/><path d="M262.349,185.706c18.904,4.641 41.316,-0.625 52.133,-12.252c4.575,-4.917 6.882,-11.499 6.169,-17.606c-0.453,-3.899 -2.066,-7.039 -4.423,-8.614c-3.725,-2.49 -6.69,-1.49 -12.078,0.322c-3.578,1.203 -8.032,2.701 -14.12,3.617c-10.667,1.605 -19.257,0.413 -26.16,-0.544c-10.076,-1.399 -16.167,-2.244 -21.382,5.789c-2.552,4.798 -2.812,9.776 -0.754,14.399c3.033,6.808 10.933,12.514 20.615,14.891Zm10.303,4.76c-3.726,-0.237 -7.44,-0.791 -11.059,-1.679c-10.613,-2.606 -19.334,-8.999 -22.757,-16.682c-2.48,-5.57 -2.174,-11.533 0.885,-17.244l0.066,-0.112c6.32,-9.789 14.353,-8.672 24.517,-7.263c6.699,0.929 15.037,2.086 25.253,0.55c5.813,-0.873 10.121,-2.323 13.582,-3.487c5.708,-1.92 9.832,-3.306 14.852,0.048c3.13,2.093 5.248,6.06 5.811,10.884c0.818,7.018 -1.798,14.545 -6.999,20.134c-9.633,10.354 -27.02,15.942 -44.151,14.851Z" style="fill:#650000;fill-rule:nonzero;"/><path d="M342.207,111.714c-10.201,-11.102 -17.747,-14.41 -25.061,1.355c-1.125,2.347 -2.07,4.809 -3.031,7.236c-0.393,0.999 -0.765,2.014 -1.21,3.03c-0.303,-2.176 -0.433,-4.376 -0.312,-6.573c0.197,-9.21 5.5,-21.831 16.636,-20.706c7.683,1.07 12.564,8.478 12.978,15.659Z" style="fill:#650000;fill-rule:nonzero;"/><path d="M215.491,125.527c-0.725,-5.556 1.144,-11.364 5.436,-15.303c9.308,-8.445 23.8,-3.124 30.975,5.255c3.598,3.977 6.171,8.695 7.477,13.69c-6.322,-6.662 -14.057,-13.574 -23.033,-15.449c-10.02,-2.018 -15.609,3.984 -20.854,11.807Z" style="fill:#650000;fill-rule:nonzero;"/><path d="M192.772,188.364c-2.903,0.34 -5.754,0.264 -8.501,-0.181c-0.765,-0.551 -1.497,-1.111 -2.197,-1.675c-9.468,-7.622 -13.521,-16.249 -15.953,-22.146c-2.454,-5.713 -4.467,-11.37 -6.056,-16.943c3.8,-10.765 13.451,-18.991 25.554,-20.403c16.944,-1.977 32.279,10.155 34.257,27.099c1.971,16.944 -10.161,32.279 -27.104,34.251Z" style="fill:#fe95a3;fill-rule:nonzero;"/><path d="M260.686,138.529c2.322,8.615 15.566,16.52 33.116,14.116c16.857,-2.31 23.601,-13.306 23.211,-21.383c-0.448,-9.272 -9.695,-21.14 -28.867,-20.265c-16.65,0.76 -31.311,13.246 -27.46,27.532Z" style="fill:#ed6882;fill-rule:nonzero;"/><path d="M260.685,138.532c2.323,8.614 15.569,16.518 33.117,14.112c16.86,-2.307 23.601,-13.302 23.206,-21.379c-0.026,-0.514 -0.074,-1.031 -0.149,-1.553c-2.848,6.219 -9.72,12.207 -21.652,13.846c-17.547,2.4 -30.793,-5.504 -33.117,-14.118c-0.238,-0.881 -0.401,-1.756 -0.501,-2.622c-1.584,3.595 -2.023,7.581 -0.905,11.715Z" style="fill:#e8496b;fill-rule:nonzero;"/><path d="M316.239,136.78c0,-0.001 0,-0.003 0,-0.003c0.048,-0.148 0.094,-0.298 0.137,-0.445c-0.043,0.149 -0.089,0.298 -0.137,0.448Zm-43.225,-21.615c0.001,-0.001 0.003,-0.001 0.004,-0.002c-0.001,0.001 -0.003,0.001 -0.004,0.002Zm0.017,-0.008c4.441,-2.409 9.671,-3.911 15.115,-4.161c1.576,-0.071 3.082,-0.057 4.525,0.035c3.886,0.247 7.289,1.057 10.223,2.264c-2.932,-1.205 -6.334,-2.015 -10.218,-2.262c-1.444,-0.092 -2.953,-0.106 -4.53,-0.034c-5.442,0.249 -10.674,1.751 -15.115,4.159Z" style="fill:#fdefef;fill-rule:nonzero;"/><path d="M316.24,136.777c0,-0.001 0,-0.003 0,-0.003c0.162,-0.506 0.299,-1.01 0.41,-1.512c-0.078,0.355 -0.169,0.712 -0.273,1.07c-0.043,0.147 -0.089,0.297 -0.137,0.445Zm-54.148,-7.336c0,-0.001 0,-0.003 -0.001,-0.003c-0.237,-0.876 -0.399,-1.747 -0.499,-2.608c2.098,-4.761 6.217,-8.837 11.423,-11.666c0.001,-0.001 0.003,-0.001 0.004,-0.002c0.004,-0.002 0.008,-0.003 0.012,-0.006c4.441,-2.408 9.672,-3.91 15.115,-4.159c1.577,-0.072 3.086,-0.058 4.53,0.034c3.883,0.247 7.285,1.057 10.218,2.262c8.498,3.498 13.057,10.323 13.963,16.424c-0.382,0.834 -0.837,1.664 -1.367,2.48c-2.317,-7.508 -10.003,-15.249 -23.575,-16.113c-0.948,-0.06 -1.925,-0.088 -2.929,-0.078c0.008,0.037 0.016,0.08 0.023,0.123c0.292,2.009 -1.821,3.984 -4.729,4.413c-0.54,0.079 -1.071,0.1 -1.577,0.068c-2.216,-0.141 -3.98,-1.294 -4.223,-2.929c-0.002,-0.03 -0.006,-0.058 -0.008,-0.086c-7.056,2.177 -13.052,6.449 -16.38,11.844Zm54.916,1.823c-0.012,-0.218 -0.026,-0.437 -0.045,-0.657c0.019,0.221 0.035,0.44 0.045,0.657Z" style="fill:#fad1d9;fill-rule:nonzero;"/><path d="M260.07,133.845c0.01,-2.449 0.548,-4.807 1.522,-7.015c0.1,0.862 0.262,1.733 0.499,2.608c0.001,0 0.001,0.001 0.001,0.003c-0.863,1.397 -1.546,2.872 -2.022,4.404Zm56.17,2.929c0.003,-0.154 -0.008,-0.31 -0.012,-0.465c-0.064,-1.332 -0.309,-2.717 -0.738,-4.111c0.53,-0.816 0.984,-1.647 1.367,-2.48c0.044,0.299 0.08,0.595 0.107,0.889c0.019,0.221 0.034,0.44 0.045,0.657c0.062,1.277 -0.055,2.624 -0.359,3.998c-0.111,0.502 -0.247,1.006 -0.41,1.512Z" style="fill:#f8c8d2;fill-rule:nonzero;"/><path d="M262.728,137.978c2.099,7.787 14.466,14.809 30.787,12.571c16.263,-2.228 21.699,-12.693 21.385,-19.184c-0.364,-7.511 -7.918,-19.111 -26.657,-18.254c-9.31,0.424 -18.012,4.685 -22.712,11.117c-2.17,2.97 -4.417,7.766 -2.803,13.75Zm21.741,17.138c-13.869,-0.883 -23.672,-8.053 -25.824,-16.037c-1.623,-6.018 -0.422,-12.016 3.471,-17.346c5.437,-7.443 15.375,-12.366 25.934,-12.847c11.623,-0.53 18.874,3.417 22.914,6.821c4.84,4.082 7.891,9.858 8.161,15.454c0.48,9.946 -7.965,21.24 -25.036,23.578c-3.376,0.462 -6.595,0.569 -9.62,0.377Z" style="fill:#650000;fill-rule:nonzero;"/><path d="M301.025,131.79c0.453,4.407 2.287,7.829 4.096,7.644c1.809,-0.186 2.91,-3.909 2.457,-8.316c-0.452,-4.407 -2.286,-7.829 -4.095,-7.644c-1.809,0.186 -2.91,3.909 -2.458,8.316Z" style="fill:#650000;fill-rule:nonzero;"/><path d="M279.291,134.021c0.452,4.407 2.286,7.829 4.095,7.643c1.809,-0.186 2.91,-3.909 2.457,-8.316c-0.452,-4.406 -2.286,-7.829 -4.095,-7.643c-1.809,0.186 -2.91,3.909 -2.457,8.316Z" style="fill:#650000;fill-rule:nonzero;"/><path d="M224.02,201.947c-19.079,-0.004 -38.928,-6.459 -51.24,-21.688c-6.148,-7.466 -9.575,-16.655 -12.822,-25.617c-7.032,-20.211 -9.193,-42.399 -4.394,-63.376c10.727,-50.303 59.092,-87.125 110.445,-84.006c19.163,0.855 38.011,6.184 54.301,16.422c6.114,3.748 11.799,8.012 17.304,12.577c1.349,1.118 2.679,2.593 3.989,3.78c0.834,0.854 2.811,3.128 3.652,4.045c14.558,17.678 20.537,40.843 21.933,63.331c19.998,62.303 -24.124,90.529 -83.033,92.978l4.543,-0.868c1.139,-0.186 3.401,-0.633 4.528,-0.88c22.479,-4.577 49.208,-12.105 64.018,-30.727c13.716,-17.585 11.626,-40.089 5.224,-60.184c-1.291,-18.711 -5.779,-37.721 -16.115,-53.566c-0.475,-0.69 -1.433,-2.106 -1.907,-2.799c-0.673,-0.985 -2.384,-3.027 -3.107,-4.005c-1.305,-1.423 -3.174,-3.625 -4.609,-4.897c-7.49,-6.998 -16.105,-12.849 -25.07,-17.774c-13.08,-6.982 -27.718,-10.867 -42.492,-11.89c-42.599,-3.872 -84.9,21.021 -102.211,60.16c-12.143,26.11 -11.647,56.725 -1.574,83.474c2.787,7.373 5.747,14.976 10.777,21.095c11.792,14.549 30.234,19.902 47.859,24.416Z" style="fill:#650000;fill-rule:nonzero;"/><path d="M165.082,60.232c0.356,0.612 6.868,8.031 7.358,8.514c2.369,2.342 17.653,12.241 25.922,7.36c7.656,-4.525 6.225,-16.199 5.403,-19.081l2.487,-8.521l-13.233,-14.892c-5.928,3.067 -11.567,6.604 -16.774,10.652c-3.646,3.352 -7.651,8.561 -11.163,15.967Z" style="fill:#f9b2b2;fill-rule:nonzero;"/><path d="M178.316,57.321c9.8,6.218 19.912,13.476 27.517,9.651c12.591,-6.333 8.572,-43.885 -3.223,-50.934c-10.844,-6.48 -20.92,1.592 -24.146,9.465c0,0 -14.667,1.333 -19.757,11.381c-4.453,7.955 1.319,21.841 13.731,31.862l5.877,-11.425Z" style="fill:#f9c9ca;fill-rule:nonzero;"/><path d="M205.834,66.973c-7.604,3.823 -17.719,-3.433 -27.518,-9.653l-5.879,11.429c-8.081,-6.526 -13.342,-14.683 -14.802,-21.782c-0.787,-3.801 -0.48,-7.301 1.075,-10.082c5.088,-10.046 19.754,-11.383 19.754,-11.383c3.228,-7.868 13.302,-15.943 24.147,-9.461c6.939,4.148 11.188,18.852 10.947,31.546l-0,0.005c-0.172,8.88 -2.542,16.775 -7.723,19.38Z" style="fill:#f9c9ca;fill-rule:nonzero;"/><path d="M205.834,66.973c-7.604,3.823 -17.719,-3.433 -27.518,-9.653l-5.879,11.429c-8.081,-6.526 -13.342,-14.683 -14.802,-21.782c0.93,-4.097 5.665,-2.861 11.736,0.252c7.819,4.018 22.361,16.017 33.506,14.685c6.964,-0.828 9.653,-8.984 10.679,-14.311c-0.172,8.88 -2.542,16.775 -7.723,19.38Z" style="fill:#f9b2b2;fill-rule:nonzero;"/><path d="M165.569,50.676c10.502,2.911 18.997,10.616 29.101,14.405c13.046,5.09 16.187,-5.607 16.593,-16.375c0.306,-8.874 -2.045,-26.68 -10.531,-31.264c-5.454,-3.118 -11.907,-1.5 -16.164,2.911c-1.731,1.713 -3.126,3.804 -4.01,6.009c-0.313,0.782 -1.02,1.288 -1.801,1.384c-6.078,0.893 -12.569,3.21 -16.53,8.064c-0.463,0.597 -1.04,1.457 -1.392,2.128c-2.792,5.23 -1.252,11.659 1.214,16.785c1.635,3.381 3.744,6.425 6.186,9.342c1.654,1.947 3.472,3.8 5.398,5.675c-7.668,-2.676 -14.177,-9.192 -17.055,-16.906c-2.415,-6.188 -2.776,-13.365 1.199,-19.063c4.63,-6.636 12.754,-9.615 20.483,-10.52l-1.888,1.395c4.822,-11.176 17.743,-17.28 28.381,-9.749c8.799,7.048 11.517,23.312 11.018,34.002c-0.612,13.441 -7.082,25.674 -22.197,18.892c-10.219,-4.612 -17.77,-12.786 -28.005,-17.114Z" style="fill:#650000;fill-rule:nonzero;"/><path d="M314.066,17.716c12.757,3.789 19.923,44.113 34.363,39.594c11.64,-3.642 15.408,-25.858 8.765,-39.23c-6.072,-12.222 -18.265,-10.796 -20.095,-10.812c-2.722,-1.435 -20.366,-12.815 -33.711,3.7" style="fill:#f9c9ca;fill-rule:nonzero;"/><path d="M303.391,10.968l6.064,3.833l4.613,2.916c12.753,3.789 19.919,44.108 34.36,39.592c7.364,-2.306 11.583,-12.056 11.994,-22.295c0.241,-5.932 -0.792,-12.028 -3.23,-16.936c-6.069,-12.221 -18.259,-10.794 -20.095,-10.814c-2.72,-1.434 -20.368,-12.809 -33.707,3.704Z" style="fill:#f9c9ca;fill-rule:nonzero;"/><path d="M309.455,14.801l4.613,2.916c12.753,3.789 19.919,44.108 34.36,39.592c7.364,-2.306 11.583,-12.056 11.994,-22.295c-1.444,5.432 -5.564,17.518 -13.287,16.493c-11.819,-1.565 -17.224,-28.424 -25.313,-35.773c-5.202,-4.721 -9.614,-3.078 -12.367,-0.934Z" style="fill:#f9b2b2;fill-rule:nonzero;"/><path d="M314.066,17.716c10.267,1.857 17.574,22.161 23.336,30.204c4.056,6.045 8.55,10.68 14.839,4.166c6.2,-7.124 7.079,-18.36 5.1,-27.302c-2.198,-9.892 -9.049,-15.929 -19.212,-15.428c-0.554,0.005 -1.46,0.134 -2.014,-0.216l-2.061,-1.133c-10.325,-5.621 -21.352,-5.49 -29.02,4.291l-3.289,-2.658c4.147,-5.305 10.561,-9.305 17.448,-9.594c6.756,-0.408 13.193,2.048 18.894,5.352l-0.967,-0.244l0.885,-0.026c19.769,-0.838 26.617,18.064 24.144,34.859c-1.202,8.157 -5.327,17.999 -14.318,19.902c-6.437,1.196 -11.352,-4.725 -14.301,-9.449c-4.145,-6.633 -7.174,-13.929 -10.557,-20.828c-2.312,-4.386 -4.38,-9.388 -8.905,-11.895Z" style="fill:#650000;fill-rule:nonzero;"/><path d="M344.24,22.909c-1.308,-3.606 -3.222,-7.012 -5.579,-9.998c-2.261,-2.861 -5.138,-5.266 -8.424,-6.696l2.017,-3.717c6.85,4.609 10.572,12.522 11.986,20.411Z" style="fill:#650000;fill-rule:nonzero;"/><path d="M192.019,40.082c-3.111,-4.376 -7.023,-8.573 -11.882,-10.896c-1.553,-0.689 -3.146,-1.096 -4.663,-1.148l0.528,-4.196c7.958,1.971 12.754,9.308 16.016,16.24Z" style="fill:#650000;fill-rule:nonzero;"/></g><g><g><g><path d="M339.523,317.476c-10.606,15.767 -31.988,19.951 -47.755,9.345c-4.636,-3.118 -8.268,-7.167 -10.82,-11.732c-1.896,-3.39 -3.191,-7.063 -3.861,-10.85c-0.327,-1.832 -0.497,-3.691 -0.518,-5.555c-0.089,-6.509 1.668,-13.098 5.427,-18.96c0.142,-0.221 0.282,-0.438 0.429,-0.657c10.609,-15.771 31.991,-19.956 47.758,-9.349c1.656,1.114 3.18,2.344 4.575,3.679c4.968,4.736 8.275,10.733 9.749,17.137c0.415,1.819 0.686,3.666 0.809,5.526c0.25,3.822 -0.134,7.694 -1.191,11.456c-0.959,3.458 -2.489,6.823 -4.6,9.962Z" style="fill:#f7c714;fill-rule:nonzero;"/></g><g><path d="M339.523,317.476c-10.606,15.767 -31.988,19.951 -47.755,9.345c-4.636,-3.118 -8.268,-7.167 -10.82,-11.732c-1.896,-3.39 -3.191,-7.063 -3.861,-10.85c-0.327,-1.832 -0.497,-3.691 -0.518,-5.555c-0.089,-6.509 1.668,-13.098 5.427,-18.96c0.142,-0.221 0.282,-0.438 0.429,-0.657c10.609,-15.771 31.991,-19.956 47.758,-9.349c1.656,1.114 3.18,2.344 4.575,3.679c4.968,4.736 8.275,10.733 9.749,17.137c0.415,1.819 0.686,3.666 0.809,5.526c0.25,3.822 -0.134,7.694 -1.191,11.456c-0.959,3.458 -2.489,6.823 -4.6,9.962Z" style="fill:none;fill-rule:nonzero;"/></g></g><g opacity="0.55"><path d="M339.523,317.476c-0.48,0.714 -0.985,1.406 -1.506,2.072c8.856,-15.504 4.359,-35.457 -10.693,-45.583c-15.053,-10.126 -35.23,-6.77 -46.252,7.277c0.421,-0.734 0.871,-1.462 1.352,-2.176c10.609,-15.771 31.991,-19.956 47.758,-9.349c15.767,10.606 19.951,31.988 9.342,47.759Z" style="fill:#fff;fill-rule:nonzero;"/></g><g><path d="M339.523,317.476c-10.606,15.767 -31.988,19.951 -47.755,9.345c-15.767,-10.606 -19.951,-31.988 -9.345,-47.755c0.918,-1.365 1.916,-2.642 2.987,-3.832c-7.376,15.178 -2.638,33.86 11.765,43.548c14.402,9.688 33.492,7.035 44.771,-5.518c-0.698,1.441 -1.505,2.847 -2.423,4.211Z" style="fill:#f89e1d;fill-rule:nonzero;"/></g><g><g><path d="M297.582,318.177c-10.977,-7.384 -13.9,-22.322 -6.516,-33.3c7.384,-10.977 22.322,-13.9 33.3,-6.516c10.977,7.384 13.9,22.322 6.516,33.3c-7.384,10.978 -22.323,13.901 -33.3,6.516Z" style="fill:#f9dd6a;fill-rule:nonzero;"/></g><g><path d="M297.582,318.177c-10.977,-7.384 -13.9,-22.322 -6.516,-33.3c7.384,-10.977 22.322,-13.9 33.3,-6.516c10.977,7.384 13.9,22.322 6.516,33.3c-7.384,10.978 -22.323,13.901 -33.3,6.516Z" style="fill:none;fill-rule:nonzero;"/></g></g><g opacity="0.55"><path d="M330.88,311.661c-0.361,0.537 -0.742,1.054 -1.135,1.549c6.071,-10.783 2.92,-24.644 -7.52,-31.667c-10.44,-7.023 -24.466,-4.717 -32.166,4.971c0.311,-0.551 0.646,-1.098 1.007,-1.635c7.384,-10.977 22.324,-13.904 33.301,-6.52c10.977,7.384 13.897,22.325 6.513,33.302Z" style="fill:#fff;fill-rule:nonzero;"/></g><g><g transform="matrix(0.775881,0.63088,-0.63088,0.775881,183.482552,-139.713586)"><text x="357.003px" y="267.094px" style="font-family:'Helvetica-Bold', 'Helvetica';font-weight:700;font-size:28.16px;fill:#66142e;">Rp</text></g></g><g opacity="0.27"><path d="M344.505,290.532l-67.937,8.151c-0.089,-6.509 1.668,-13.098 5.427,-18.96l52.762,-6.327c4.968,4.736 8.275,10.733 9.749,17.137Z" style="fill:#fce5e5;fill-rule:nonzero;"/></g><g opacity="0.27"><path d="M344.931,303.875l-64.603,9.472c-1.896,-3.39 -2.572,-5.322 -3.242,-9.109l68.228,-8.18c0.25,3.822 0.674,4.055 -0.383,7.817Z" style="fill:#fce5e5;fill-rule:nonzero;"/></g><g><path d="M301.484,322.285c-1.697,-0.671 -3.347,-1.533 -4.922,-2.592c-5.714,-3.844 -9.591,-9.692 -10.917,-16.468c-1.326,-6.775 0.061,-13.654 3.905,-19.368c3.844,-5.714 9.692,-9.591 16.467,-10.917c6.776,-1.326 13.652,0.062 19.368,3.905c5.714,3.844 9.591,9.692 10.917,16.468c1.326,6.775 -0.061,13.654 -3.904,19.368c-6.887,10.238 -19.881,13.966 -30.914,9.604Zm17.616,-44.645c-3.896,-1.54 -8.161,-1.939 -12.381,-1.113c-5.818,1.138 -10.838,4.466 -14.137,9.37c-3.299,4.904 -4.489,10.809 -3.351,16.627c1.138,5.818 4.466,10.839 9.37,14.138c1.351,0.909 2.769,1.65 4.225,2.225c9.472,3.746 20.626,0.545 26.54,-8.245c3.299,-4.904 4.488,-10.809 3.35,-16.627c-1.139,-5.817 -4.466,-10.838 -9.371,-14.137c-1.347,-0.906 -2.77,-1.654 -4.246,-2.237Z" style="fill:#66142e;fill-rule:nonzero;"/></g><g><path d="M297.521,332.314c-2.405,-0.951 -4.745,-2.173 -6.977,-3.675c-4.82,-3.242 -8.693,-7.442 -11.51,-12.482c-2.005,-3.584 -3.386,-7.466 -4.107,-11.538c-0.343,-1.923 -0.529,-3.913 -0.552,-5.912c-0.097,-7.151 1.9,-14.127 5.774,-20.169c0.166,-0.258 0.307,-0.477 0.455,-0.697c11.265,-16.747 34.053,-21.212 50.801,-9.945c1.735,1.167 3.373,2.484 4.868,3.914c5.172,4.931 8.759,11.235 10.369,18.228c0.44,1.93 0.729,3.904 0.86,5.873c0.27,4.135 -0.156,8.237 -1.268,12.195c-1.038,3.744 -2.685,7.311 -4.892,10.592c-9.763,14.513 -28.182,19.798 -43.821,13.615Zm25.296,-64.013c-13.767,-5.443 -29.98,-0.79 -38.575,11.988c-0.132,0.196 -0.256,0.389 -0.383,0.587c-3.428,5.347 -5.185,11.484 -5.099,17.777c0.02,1.763 0.183,3.511 0.484,5.2c0.635,3.591 1.851,7.01 3.616,10.165c2.479,4.434 5.887,8.129 10.131,10.983c1.964,1.321 4.025,2.398 6.141,3.234c13.766,5.444 29.977,0.792 38.57,-11.983c1.944,-2.89 3.393,-6.027 4.307,-9.324c0.979,-3.485 1.354,-7.091 1.116,-10.727c-0.115,-1.738 -0.37,-3.481 -0.758,-5.181c-1.416,-6.15 -4.572,-11.698 -9.124,-16.038c-1.317,-1.26 -2.758,-2.419 -4.286,-3.446c-1.963,-1.321 -4.024,-2.397 -6.14,-3.234Z" style="fill:#66142e;fill-rule:nonzero;"/></g></g><g><g><g><path d="M207.721,213.527c-6.428,-16.722 -16.934,-28.55 -24.56,-28.233c0,0 -9.819,-1.624 -17.031,7.197c-6.402,5.079 -6.306,20.63 0.268,37.731c5.033,13.092 12.565,23.185 19.258,26.8l0.001,0.001c0,0 9.65,7.27 22.435,-5.845c6.18,-4.575 6.165,-20.646 -0.371,-37.651Z" style="fill:#f7c714;fill-rule:nonzero;"/></g><g><path d="M187.517,258.391c-1.315,-0.52 -2.053,-1.057 -2.08,-1.077c-7,-3.777 -14.444,-14.12 -19.381,-26.962c-6.626,-17.24 -6.7,-32.905 -0.185,-38.124c7.025,-8.562 16.607,-7.4 17.309,-7.301c7.964,-0.293 18.422,11.667 24.881,28.469c6.527,16.979 6.633,33.348 0.248,38.076c-9.372,9.618 -17.215,8.334 -20.793,6.92Zm-0.718,-72.044c-1.258,-0.497 -2.473,-0.737 -3.623,-0.689l-0.074,-0.005c-0.096,-0.016 -9.702,-1.478 -16.689,7.068l-0.056,0.055c-6.299,4.998 -6.142,20.342 0.382,37.314c4.803,12.495 12.297,22.939 19.091,26.61c0.142,0.099 9.599,6.943 22.001,-5.778c6.175,-4.577 5.962,-20.581 -0.451,-37.264c-5.303,-13.796 -13.586,-24.546 -20.58,-27.311Z" style="fill:#66142e;fill-rule:nonzero;"/></g></g><g><path d="M182.443,230.559l-13.436,6.778l12.156,18.638c0,0 12.388,-4.019 13.894,-5.604c0,0 -14.885,-15.5 -12.615,-19.811Z" style="fill:#f89e1d;fill-rule:nonzero;"/></g><g opacity="0.55"><path d="M175.896,199.915l-14.416,10.253l2.587,13.889l12.672,-7.292l-0.843,-16.849Z" style="fill:#fce5e5;fill-rule:nonzero;"/></g><g opacity="0.55"><path d="M177.34,191.112c0,0 -6.23,0.001 -9.945,6.986c0,0 -5.196,6.112 -3.599,14.233c0,0 -1.063,-13.616 -1.067,-14.702c-0.003,-1.085 8.872,-11.412 8.872,-11.412l4.787,-0.463l0.951,5.358Z" style="fill:#fff;fill-rule:nonzero;"/></g><g opacity="0.55"><path d="M196.388,197.628c0,0 -5.173,-4.829 -10.195,-6.857c-2.777,-1.122 -5.888,0.222 -6.895,3.042c-1.321,3.699 -2.567,10.489 -1.27,22.116l-2.936,-18.817c0,0 3.112,-10.594 6.755,-12.038c0,-0 11.69,2.499 14.541,12.554Z" style="fill:#fff;fill-rule:nonzero;"/></g><g><g><path d="M185.286,196.929c3.952,-1.53 10.713,6.406 15.09,17.711c4.377,11.305 4.722,21.726 0.77,23.255c-3.952,1.53 -10.713,-6.406 -15.09,-17.711c-4.377,-11.305 -4.722,-21.726 -0.77,-23.255Z" style="fill:#f9dd6a;"/></g><g><path d="M198.41,238.115c-4.039,-1.597 -9.107,-8.483 -12.707,-17.783c-4.52,-11.677 -4.766,-22.1 -0.56,-23.728c4.207,-1.627 11.042,6.245 15.561,17.922c4.52,11.677 4.766,22.1 0.56,23.728c-0.856,0.331 -1.822,0.269 -2.855,-0.139Zm-10.692,-40.7c-0.849,-0.336 -1.631,-0.392 -2.311,-0.129c-3.696,1.431 -3.249,11.864 0.977,22.783c4.227,10.918 10.922,18.933 14.616,17.504c3.696,-1.431 3.249,-11.864 -0.977,-22.783c-3.449,-8.909 -8.54,-15.886 -12.305,-17.374Z" style="fill:#66142e;fill-rule:nonzero;"/></g></g><g><path d="M198.132,238.837c-4.688,-1.853 -9.911,-9.895 -13.137,-18.23c-4.041,-10.439 -5.457,-22.647 -0.126,-24.711c5.333,-2.064 12.504,7.917 16.544,18.356c4.041,10.439 5.457,22.647 0.126,24.711c-1.075,0.416 -2.225,0.342 -3.408,-0.126Zm-10.691,-40.72c-0.671,-0.265 -1.267,-0.314 -1.759,-0.123c-2.89,1.119 -3.021,10.347 1.412,21.8c4.306,11.123 10.748,18.185 13.634,17.07c2.89,-1.119 3.021,-10.347 -1.412,-21.8c-3.57,-9.225 -8.612,-15.657 -11.874,-16.947Z" style="fill:#66142e;fill-rule:nonzero;"/></g><g><g><path d="M191.391,218.332l-1.019,0.444l2.893,6.642l-0.965,0.42l-7.378,-16.938l2.317,-1.009c0.341,-0.121 0.659,-0.087 0.955,0.104c0.295,0.19 0.618,0.519 0.969,0.986c0.289,0.384 0.577,0.824 0.864,1.319c0.287,0.495 0.575,1.076 0.866,1.742c0.35,0.804 0.638,1.62 0.864,2.447c0.225,0.827 0.278,1.458 0.157,1.893c0.355,0.219 0.703,0.598 1.046,1.137c0.343,0.539 0.773,1.402 1.29,2.589l0.496,1.138c0.337,0.774 0.574,1.295 0.711,1.563c0.216,0.426 0.416,0.721 0.6,0.887l0.185,0.425l-1.086,0.473c-0.193,-0.362 -0.347,-0.656 -0.46,-0.88c-0.233,-0.464 -0.458,-0.944 -0.677,-1.441l-0.692,-1.572c-0.475,-1.078 -0.843,-1.774 -1.106,-2.088c-0.263,-0.314 -0.539,-0.408 -0.83,-0.281Zm-0.742,-3.341c0.056,-0.407 -0.122,-1.086 -0.536,-2.036c-0.447,-1.027 -0.843,-1.675 -1.186,-1.944c-0.194,-0.153 -0.397,-0.182 -0.611,-0.089l-1.147,0.5l1.982,4.551l1.118,-0.487c0.222,-0.097 0.349,-0.261 0.38,-0.494Z" style="fill:#66142e;"/><path d="M195,211.36c0.753,0.957 1.584,2.482 2.495,4.573c0.961,2.206 1.555,3.948 1.782,5.225c0.227,1.277 0.123,2.011 -0.313,2.201c-0.278,0.121 -0.617,-0.027 -1.018,-0.445c-0.221,-0.232 -0.494,-0.591 -0.82,-1.078l2.843,6.527l-0.904,0.394l-7.603,-17.455l0.875,-0.381l0.806,1.85c-0.139,-0.587 -0.221,-1.061 -0.247,-1.424c-0.041,-0.648 0.079,-1.032 0.359,-1.154c0.408,-0.178 0.989,0.212 1.744,1.168Zm1.623,5.144c-0.42,-0.965 -0.854,-1.793 -1.3,-2.482c-0.447,-0.69 -0.808,-0.974 -1.083,-0.854c-0.331,0.144 -0.313,0.806 0.053,1.987c0.196,0.625 0.494,1.398 0.895,2.317c0.634,1.456 1.187,2.431 1.66,2.927c0.278,0.289 0.505,0.395 0.68,0.319c0.254,-0.111 0.295,-0.548 0.121,-1.311c-0.173,-0.763 -0.515,-1.731 -1.026,-2.903Z" style="fill:#66142e;"/></g></g><g><g><clipPath id="_clip1"><path d="M181.053,185.706c7.676,-2.95 19.618,9.512 26.653,27.813c7.034,18.301 6.514,35.554 -1.162,38.504c-7.676,2.95 -19.618,-9.512 -26.653,-27.813c-7.034,-18.301 -6.514,-35.554 1.162,-38.504Z"/></clipPath><g clip-path="url(#_clip1)"><g opacity="0.27"><path d="M216.081,232.995l-52.544,-26.63c3.047,-4.703 7.453,-8.582 12.947,-10.984l40.805,20.684c1.294,5.766 0.796,11.64 -1.208,16.93Z" style="fill:#fce5e5;fill-rule:nonzero;"/></g></g></g><g><clipPath id="_clip2"><path d="M181.053,185.706c7.676,-2.95 19.618,9.512 26.653,27.813c7.034,18.301 6.514,35.554 -1.162,38.504c-7.676,2.95 -19.618,-9.512 -26.653,-27.813c-7.034,-18.301 -6.514,-35.554 1.162,-38.504Z"/></clipPath><g clip-path="url(#_clip2)"><g opacity="0.27"><path d="M210.009,242.754l-50.788,-24.09c0.262,-3.333 0.702,-5.04 2.032,-8.072l52.766,26.748c-1.647,2.857 -1.455,3.226 -4.01,5.415Z" style="fill:#fce5e5;fill-rule:nonzero;"/></g></g></g></g><g><path d="M200.039,253.447c-2.685,-1.061 -5.519,-3.107 -8.369,-6.08c-5.199,-5.425 -9.984,-13.412 -13.474,-22.491c-7.515,-19.552 -6.543,-37.505 2.213,-40.871c8.758,-3.367 21.504,9.313 29.02,28.866c3.49,9.078 5.287,18.215 5.061,25.725c-0.243,8.057 -2.826,13.436 -7.274,15.145c-2.175,0.837 -4.607,0.723 -7.177,-0.293Zm-13.866,-65.728c-1.68,-0.664 -3.197,-0.78 -4.449,-0.298c-5.77,2.218 -7.234,17.606 -0.11,36.141c3.32,8.635 7.83,16.19 12.699,21.271c4.426,4.618 8.65,6.619 11.589,5.49c2.939,-1.13 4.735,-5.445 4.928,-11.839c0.212,-7.035 -1.499,-15.665 -4.819,-24.301c-5.579,-14.512 -13.775,-24.066 -19.839,-26.463Z" style="fill:#66142e;fill-rule:nonzero;"/></g><g><path d="M186.661,260.385c-1.148,-0.454 -1.94,-0.923 -2.309,-1.162c-7.459,-4.081 -15.246,-14.829 -20.342,-28.084c-4.022,-10.464 -5.808,-19.646 -5.308,-27.29c0.786,-12.02 10.719,-21.343 22.614,-21.225c0.931,0.01 1.616,0.069 1.96,0.107c8.984,-0.168 19.983,12.062 26.832,29.877c6.923,18.012 6.775,34.966 -0.319,40.491c-10.193,10.364 -18.98,8.925 -23.128,7.285Zm0.518,-5.42c0.383,0.276 8.191,5.597 19.082,-5.574c0.096,-0.098 0.199,-0.188 0.31,-0.271c4.527,-3.352 5.341,-17.563 -1.237,-34.677c-6.429,-16.728 -16.459,-26.827 -22.065,-26.596c-0.156,0.007 -0.312,-0.001 -0.466,-0.023c0,0 -0.582,-0.077 -1.537,-0.087c-9.18,-0.091 -16.849,7.131 -17.458,16.444c-0.451,6.9 1.224,15.352 4.979,25.12c4.626,12.035 11.725,22.031 18.086,25.467c0.107,0.058 0.21,0.123 0.307,0.195Z" style="fill:#66142e;fill-rule:nonzero;"/></g></g><g><g><g><path d="M241.76,287.506l-3.966,-7.337c-0.942,-1.743 -0.347,-3.902 1.32,-4.929c0.056,-0.035 0.122,-0.071 0.18,-0.102l42.097,-22.756c1.801,-0.974 4.055,-0.305 5.031,1.5l3.966,7.337c0.976,1.805 0.301,4.057 -1.5,5.031l-42.097,22.756c-1.801,0.974 -4.055,0.305 -5.031,-1.5Z" style="fill:#f7c714;fill-rule:nonzero;"/></g><g><path d="M243.524,289.53c-0.861,-0.34 -1.612,-0.973 -2.086,-1.85l-3.966,-7.337c-1.028,-1.902 -0.391,-4.279 1.45,-5.413c0.06,-0.038 0.135,-0.079 0.2,-0.114l42.095,-22.755c1.979,-1.069 4.457,-0.329 5.527,1.648l3.966,7.337c1.069,1.978 0.33,4.457 -1.648,5.526l-42.097,22.756c-1.102,0.596 -2.358,0.63 -3.441,0.202Zm-1.443,-2.197c0.877,1.624 2.913,2.229 4.536,1.353l42.097,-22.756c1.623,-0.878 2.23,-2.913 1.353,-4.536l-3.966,-7.337c-0.877,-1.624 -2.913,-2.229 -4.536,-1.353l-42.097,22.756c-0.053,0.028 -0.11,0.059 -0.159,0.091c-1.515,0.932 -2.037,2.884 -1.193,4.445l3.966,7.337Z" style="fill:#66142e;fill-rule:nonzero;"/></g></g><g><path d="M259.265,264.369l7.497,13.869l-18.209,9.843l-7.497,-13.869l18.209,-9.843Z" style="fill:#f89e1d;"/></g><g opacity="0.55"><path d="M279.234,253.573l7.497,13.869l-8.846,4.782l-7.497,-13.869l8.846,-4.782Z" style="fill:#fce5e5;"/></g><g><path d="M242.847,291.229c-1.289,-0.51 -2.347,-1.448 -3.015,-2.681l-3.965,-7.335c-0.75,-1.387 -0.915,-2.984 -0.464,-4.496c0.451,-1.512 1.463,-2.757 2.851,-3.507l42.094,-22.754c2.864,-1.548 6.454,-0.479 8.003,2.387l3.965,7.336c0.75,1.387 0.915,2.984 0.464,4.496c-0.451,1.512 -1.463,2.757 -2.851,3.507l-42.094,22.754c-1.388,0.751 -2.984,0.915 -4.496,0.464c-0.168,-0.05 -0.332,-0.107 -0.493,-0.17Zm40.869,-36.992c-0.404,-0.16 -0.872,-0.147 -1.283,0.075l-42.094,22.754c-0.357,0.193 -0.618,0.514 -0.734,0.903c-0.116,0.389 -0.074,0.8 0.119,1.158l3.966,7.336c0.193,0.358 0.519,0.617 0.903,0.735c0.389,0.116 0.8,0.074 1.158,-0.119l42.094,-22.754c0.357,-0.193 0.618,-0.514 0.734,-0.903c0.116,-0.389 0.074,-0.8 -0.119,-1.158l-3.965,-7.336c-0.177,-0.327 -0.457,-0.563 -0.778,-0.69Zm-44.42,20.901l0.007,0.003l-0.007,-0.003Z" style="fill:#66142e;fill-rule:nonzero;"/></g></g></g></g></svg>